%TF.GenerationSoftware,KiCad,Pcbnew,5.1.7-a382d34a8~87~ubuntu20.04.1*%
%TF.CreationDate,2021-04-14T12:00:42+02:00*%
%TF.ProjectId,pico_on_raspi,7069636f-5f6f-46e5-9f72-617370692e6b,rev?*%
%TF.SameCoordinates,Original*%
%TF.FileFunction,Legend,Top*%
%TF.FilePolarity,Positive*%
%FSLAX46Y46*%
G04 Gerber Fmt 4.6, Leading zero omitted, Abs format (unit mm)*
G04 Created by KiCad (PCBNEW 5.1.7-a382d34a8~87~ubuntu20.04.1) date 2021-04-14 12:00:42*
%MOMM*%
%LPD*%
G01*
G04 APERTURE LIST*
%ADD10C,0.177500*%
%ADD11C,0.125000*%
%ADD12C,0.150000*%
%ADD13C,0.120000*%
%ADD14C,0.381000*%
%ADD15C,0.304800*%
%ADD16C,0.250190*%
%ADD17C,0.251460*%
G04 APERTURE END LIST*
D10*
X77241523Y-99129904D02*
X77736761Y-99129904D01*
X77470095Y-99434666D01*
X77584380Y-99434666D01*
X77660571Y-99472761D01*
X77698666Y-99510857D01*
X77736761Y-99587047D01*
X77736761Y-99777523D01*
X77698666Y-99853714D01*
X77660571Y-99891809D01*
X77584380Y-99929904D01*
X77355809Y-99929904D01*
X77279619Y-99891809D01*
X77241523Y-99853714D01*
X77965333Y-99129904D02*
X78232000Y-99929904D01*
X78498666Y-99129904D01*
X78689142Y-99129904D02*
X79184380Y-99129904D01*
X78917714Y-99434666D01*
X79032000Y-99434666D01*
X79108190Y-99472761D01*
X79146285Y-99510857D01*
X79184380Y-99587047D01*
X79184380Y-99777523D01*
X79146285Y-99853714D01*
X79108190Y-99891809D01*
X79032000Y-99929904D01*
X78803428Y-99929904D01*
X78727238Y-99891809D01*
X78689142Y-99853714D01*
D11*
X111120000Y-104677333D02*
X111053333Y-104710666D01*
X110920000Y-104710666D01*
X110853333Y-104677333D01*
X110820000Y-104644000D01*
X110786666Y-104577333D01*
X110786666Y-104377333D01*
X110820000Y-104310666D01*
X110853333Y-104277333D01*
X110920000Y-104244000D01*
X111053333Y-104244000D01*
X111120000Y-104277333D01*
X111420000Y-104710666D02*
X111420000Y-104244000D01*
X111420000Y-104377333D02*
X111453333Y-104310666D01*
X111486666Y-104277333D01*
X111553333Y-104244000D01*
X111620000Y-104244000D01*
X112120000Y-104677333D02*
X112053333Y-104710666D01*
X111920000Y-104710666D01*
X111853333Y-104677333D01*
X111820000Y-104610666D01*
X111820000Y-104344000D01*
X111853333Y-104277333D01*
X111920000Y-104244000D01*
X112053333Y-104244000D01*
X112120000Y-104277333D01*
X112153333Y-104344000D01*
X112153333Y-104410666D01*
X111820000Y-104477333D01*
X112753333Y-104710666D02*
X112753333Y-104344000D01*
X112720000Y-104277333D01*
X112653333Y-104244000D01*
X112520000Y-104244000D01*
X112453333Y-104277333D01*
X112753333Y-104677333D02*
X112686666Y-104710666D01*
X112520000Y-104710666D01*
X112453333Y-104677333D01*
X112420000Y-104610666D01*
X112420000Y-104544000D01*
X112453333Y-104477333D01*
X112520000Y-104444000D01*
X112686666Y-104444000D01*
X112753333Y-104410666D01*
X112986666Y-104244000D02*
X113253333Y-104244000D01*
X113086666Y-104010666D02*
X113086666Y-104610666D01*
X113120000Y-104677333D01*
X113186666Y-104710666D01*
X113253333Y-104710666D01*
X113753333Y-104677333D02*
X113686666Y-104710666D01*
X113553333Y-104710666D01*
X113486666Y-104677333D01*
X113453333Y-104610666D01*
X113453333Y-104344000D01*
X113486666Y-104277333D01*
X113553333Y-104244000D01*
X113686666Y-104244000D01*
X113753333Y-104277333D01*
X113786666Y-104344000D01*
X113786666Y-104410666D01*
X113453333Y-104477333D01*
X114386666Y-104710666D02*
X114386666Y-104010666D01*
X114386666Y-104677333D02*
X114320000Y-104710666D01*
X114186666Y-104710666D01*
X114120000Y-104677333D01*
X114086666Y-104644000D01*
X114053333Y-104577333D01*
X114053333Y-104377333D01*
X114086666Y-104310666D01*
X114120000Y-104277333D01*
X114186666Y-104244000D01*
X114320000Y-104244000D01*
X114386666Y-104277333D01*
X115186666Y-104244000D02*
X115320000Y-104710666D01*
X115453333Y-104377333D01*
X115586666Y-104710666D01*
X115720000Y-104244000D01*
X115986666Y-104710666D02*
X115986666Y-104244000D01*
X115986666Y-104010666D02*
X115953333Y-104044000D01*
X115986666Y-104077333D01*
X116020000Y-104044000D01*
X115986666Y-104010666D01*
X115986666Y-104077333D01*
X116220000Y-104244000D02*
X116486666Y-104244000D01*
X116320000Y-104010666D02*
X116320000Y-104610666D01*
X116353333Y-104677333D01*
X116420000Y-104710666D01*
X116486666Y-104710666D01*
X116720000Y-104710666D02*
X116720000Y-104010666D01*
X117020000Y-104710666D02*
X117020000Y-104344000D01*
X116986666Y-104277333D01*
X116920000Y-104244000D01*
X116820000Y-104244000D01*
X116753333Y-104277333D01*
X116720000Y-104310666D01*
X117886666Y-104710666D02*
X117886666Y-104010666D01*
X117953333Y-104444000D02*
X118153333Y-104710666D01*
X118153333Y-104244000D02*
X117886666Y-104510666D01*
X118453333Y-104710666D02*
X118453333Y-104244000D01*
X118453333Y-104010666D02*
X118420000Y-104044000D01*
X118453333Y-104077333D01*
X118486666Y-104044000D01*
X118453333Y-104010666D01*
X118453333Y-104077333D01*
X119086666Y-104677333D02*
X119020000Y-104710666D01*
X118886666Y-104710666D01*
X118820000Y-104677333D01*
X118786666Y-104644000D01*
X118753333Y-104577333D01*
X118753333Y-104377333D01*
X118786666Y-104310666D01*
X118820000Y-104277333D01*
X118886666Y-104244000D01*
X119020000Y-104244000D01*
X119086666Y-104277333D01*
X119686666Y-104710666D02*
X119686666Y-104344000D01*
X119653333Y-104277333D01*
X119586666Y-104244000D01*
X119453333Y-104244000D01*
X119386666Y-104277333D01*
X119686666Y-104677333D02*
X119620000Y-104710666D01*
X119453333Y-104710666D01*
X119386666Y-104677333D01*
X119353333Y-104610666D01*
X119353333Y-104544000D01*
X119386666Y-104477333D01*
X119453333Y-104444000D01*
X119620000Y-104444000D01*
X119686666Y-104410666D01*
X120320000Y-104710666D02*
X120320000Y-104010666D01*
X120320000Y-104677333D02*
X120253333Y-104710666D01*
X120120000Y-104710666D01*
X120053333Y-104677333D01*
X120020000Y-104644000D01*
X119986666Y-104577333D01*
X119986666Y-104377333D01*
X120020000Y-104310666D01*
X120053333Y-104277333D01*
X120120000Y-104244000D01*
X120253333Y-104244000D01*
X120320000Y-104277333D01*
X76596952Y-104039833D02*
X76835047Y-104039833D01*
X76549333Y-104182690D02*
X76716000Y-103682690D01*
X76882666Y-104182690D01*
X77049333Y-104182690D02*
X77049333Y-103682690D01*
X77168380Y-103682690D01*
X77239809Y-103706500D01*
X77287428Y-103754119D01*
X77311238Y-103801738D01*
X77335047Y-103896976D01*
X77335047Y-103968404D01*
X77311238Y-104063642D01*
X77287428Y-104111261D01*
X77239809Y-104158880D01*
X77168380Y-104182690D01*
X77049333Y-104182690D01*
X77835047Y-104135071D02*
X77811238Y-104158880D01*
X77739809Y-104182690D01*
X77692190Y-104182690D01*
X77620761Y-104158880D01*
X77573142Y-104111261D01*
X77549333Y-104063642D01*
X77525523Y-103968404D01*
X77525523Y-103896976D01*
X77549333Y-103801738D01*
X77573142Y-103754119D01*
X77620761Y-103706500D01*
X77692190Y-103682690D01*
X77739809Y-103682690D01*
X77811238Y-103706500D01*
X77835047Y-103730309D01*
X76358857Y-104557690D02*
X76525523Y-105057690D01*
X76692190Y-104557690D01*
X77144571Y-105057690D02*
X76977904Y-104819595D01*
X76858857Y-105057690D02*
X76858857Y-104557690D01*
X77049333Y-104557690D01*
X77096952Y-104581500D01*
X77120761Y-104605309D01*
X77144571Y-104652928D01*
X77144571Y-104724357D01*
X77120761Y-104771976D01*
X77096952Y-104795785D01*
X77049333Y-104819595D01*
X76858857Y-104819595D01*
X77358857Y-104795785D02*
X77525523Y-104795785D01*
X77596952Y-105057690D02*
X77358857Y-105057690D01*
X77358857Y-104557690D01*
X77596952Y-104557690D01*
X77977904Y-104795785D02*
X77811238Y-104795785D01*
X77811238Y-105057690D02*
X77811238Y-104557690D01*
X78049333Y-104557690D01*
D10*
X67665619Y-102685904D02*
X67284666Y-102685904D01*
X67246571Y-103066857D01*
X67284666Y-103028761D01*
X67360857Y-102990666D01*
X67551333Y-102990666D01*
X67627523Y-103028761D01*
X67665619Y-103066857D01*
X67703714Y-103143047D01*
X67703714Y-103333523D01*
X67665619Y-103409714D01*
X67627523Y-103447809D01*
X67551333Y-103485904D01*
X67360857Y-103485904D01*
X67284666Y-103447809D01*
X67246571Y-103409714D01*
X67932285Y-102685904D02*
X68198952Y-103485904D01*
X68465619Y-102685904D01*
D11*
X81669047Y-96603333D02*
X81907142Y-96603333D01*
X81621428Y-96746190D02*
X81788095Y-96246190D01*
X81954761Y-96746190D01*
X82383333Y-96270000D02*
X82335714Y-96246190D01*
X82264285Y-96246190D01*
X82192857Y-96270000D01*
X82145238Y-96317619D01*
X82121428Y-96365238D01*
X82097619Y-96460476D01*
X82097619Y-96531904D01*
X82121428Y-96627142D01*
X82145238Y-96674761D01*
X82192857Y-96722380D01*
X82264285Y-96746190D01*
X82311904Y-96746190D01*
X82383333Y-96722380D01*
X82407142Y-96698571D01*
X82407142Y-96531904D01*
X82311904Y-96531904D01*
X82621428Y-96746190D02*
X82621428Y-96246190D01*
X82907142Y-96746190D01*
X82907142Y-96246190D01*
X83145238Y-96746190D02*
X83145238Y-96246190D01*
X83264285Y-96246190D01*
X83335714Y-96270000D01*
X83383333Y-96317619D01*
X83407142Y-96365238D01*
X83430952Y-96460476D01*
X83430952Y-96531904D01*
X83407142Y-96627142D01*
X83383333Y-96674761D01*
X83335714Y-96722380D01*
X83264285Y-96746190D01*
X83145238Y-96746190D01*
X99195047Y-96603333D02*
X99433142Y-96603333D01*
X99147428Y-96746190D02*
X99314095Y-96246190D01*
X99480761Y-96746190D01*
X99909333Y-96270000D02*
X99861714Y-96246190D01*
X99790285Y-96246190D01*
X99718857Y-96270000D01*
X99671238Y-96317619D01*
X99647428Y-96365238D01*
X99623619Y-96460476D01*
X99623619Y-96531904D01*
X99647428Y-96627142D01*
X99671238Y-96674761D01*
X99718857Y-96722380D01*
X99790285Y-96746190D01*
X99837904Y-96746190D01*
X99909333Y-96722380D01*
X99933142Y-96698571D01*
X99933142Y-96531904D01*
X99837904Y-96531904D01*
X100147428Y-96746190D02*
X100147428Y-96246190D01*
X100433142Y-96746190D01*
X100433142Y-96246190D01*
X100671238Y-96746190D02*
X100671238Y-96246190D01*
X100790285Y-96246190D01*
X100861714Y-96270000D01*
X100909333Y-96317619D01*
X100933142Y-96365238D01*
X100956952Y-96460476D01*
X100956952Y-96531904D01*
X100933142Y-96627142D01*
X100909333Y-96674761D01*
X100861714Y-96722380D01*
X100790285Y-96746190D01*
X100671238Y-96746190D01*
X90305047Y-96603333D02*
X90543142Y-96603333D01*
X90257428Y-96746190D02*
X90424095Y-96246190D01*
X90590761Y-96746190D01*
X91019333Y-96270000D02*
X90971714Y-96246190D01*
X90900285Y-96246190D01*
X90828857Y-96270000D01*
X90781238Y-96317619D01*
X90757428Y-96365238D01*
X90733619Y-96460476D01*
X90733619Y-96531904D01*
X90757428Y-96627142D01*
X90781238Y-96674761D01*
X90828857Y-96722380D01*
X90900285Y-96746190D01*
X90947904Y-96746190D01*
X91019333Y-96722380D01*
X91043142Y-96698571D01*
X91043142Y-96531904D01*
X90947904Y-96531904D01*
X91257428Y-96746190D02*
X91257428Y-96246190D01*
X91543142Y-96746190D01*
X91543142Y-96246190D01*
X91781238Y-96746190D02*
X91781238Y-96246190D01*
X91900285Y-96246190D01*
X91971714Y-96270000D01*
X92019333Y-96317619D01*
X92043142Y-96365238D01*
X92066952Y-96460476D01*
X92066952Y-96531904D01*
X92043142Y-96627142D01*
X92019333Y-96674761D01*
X91971714Y-96722380D01*
X91900285Y-96746190D01*
X91781238Y-96746190D01*
X87010952Y-96246190D02*
X87320476Y-96246190D01*
X87153809Y-96436666D01*
X87225238Y-96436666D01*
X87272857Y-96460476D01*
X87296666Y-96484285D01*
X87320476Y-96531904D01*
X87320476Y-96650952D01*
X87296666Y-96698571D01*
X87272857Y-96722380D01*
X87225238Y-96746190D01*
X87082380Y-96746190D01*
X87034761Y-96722380D01*
X87010952Y-96698571D01*
X87463333Y-96246190D02*
X87630000Y-96746190D01*
X87796666Y-96246190D01*
X87915714Y-96246190D02*
X88225238Y-96246190D01*
X88058571Y-96436666D01*
X88130000Y-96436666D01*
X88177619Y-96460476D01*
X88201428Y-96484285D01*
X88225238Y-96531904D01*
X88225238Y-96650952D01*
X88201428Y-96698571D01*
X88177619Y-96722380D01*
X88130000Y-96746190D01*
X87987142Y-96746190D01*
X87939523Y-96722380D01*
X87915714Y-96698571D01*
X95900952Y-96246190D02*
X96210476Y-96246190D01*
X96043809Y-96436666D01*
X96115238Y-96436666D01*
X96162857Y-96460476D01*
X96186666Y-96484285D01*
X96210476Y-96531904D01*
X96210476Y-96650952D01*
X96186666Y-96698571D01*
X96162857Y-96722380D01*
X96115238Y-96746190D01*
X95972380Y-96746190D01*
X95924761Y-96722380D01*
X95900952Y-96698571D01*
X96353333Y-96246190D02*
X96520000Y-96746190D01*
X96686666Y-96246190D01*
X96805714Y-96246190D02*
X97115238Y-96246190D01*
X96948571Y-96436666D01*
X97020000Y-96436666D01*
X97067619Y-96460476D01*
X97091428Y-96484285D01*
X97115238Y-96531904D01*
X97115238Y-96650952D01*
X97091428Y-96698571D01*
X97067619Y-96722380D01*
X97020000Y-96746190D01*
X96877142Y-96746190D01*
X96829523Y-96722380D01*
X96805714Y-96698571D01*
X104790952Y-96246190D02*
X105100476Y-96246190D01*
X104933809Y-96436666D01*
X105005238Y-96436666D01*
X105052857Y-96460476D01*
X105076666Y-96484285D01*
X105100476Y-96531904D01*
X105100476Y-96650952D01*
X105076666Y-96698571D01*
X105052857Y-96722380D01*
X105005238Y-96746190D01*
X104862380Y-96746190D01*
X104814761Y-96722380D01*
X104790952Y-96698571D01*
X105243333Y-96246190D02*
X105410000Y-96746190D01*
X105576666Y-96246190D01*
X105695714Y-96246190D02*
X106005238Y-96246190D01*
X105838571Y-96436666D01*
X105910000Y-96436666D01*
X105957619Y-96460476D01*
X105981428Y-96484285D01*
X106005238Y-96531904D01*
X106005238Y-96650952D01*
X105981428Y-96698571D01*
X105957619Y-96722380D01*
X105910000Y-96746190D01*
X105767142Y-96746190D01*
X105719523Y-96722380D01*
X105695714Y-96698571D01*
X121023238Y-102342190D02*
X121332761Y-102342190D01*
X121166095Y-102532666D01*
X121237523Y-102532666D01*
X121285142Y-102556476D01*
X121308952Y-102580285D01*
X121332761Y-102627904D01*
X121332761Y-102746952D01*
X121308952Y-102794571D01*
X121285142Y-102818380D01*
X121237523Y-102842190D01*
X121094666Y-102842190D01*
X121047047Y-102818380D01*
X121023238Y-102794571D01*
X121475619Y-102342190D02*
X121642285Y-102842190D01*
X121808952Y-102342190D01*
X121928000Y-102342190D02*
X122237523Y-102342190D01*
X122070857Y-102532666D01*
X122142285Y-102532666D01*
X122189904Y-102556476D01*
X122213714Y-102580285D01*
X122237523Y-102627904D01*
X122237523Y-102746952D01*
X122213714Y-102794571D01*
X122189904Y-102818380D01*
X122142285Y-102842190D01*
X121999428Y-102842190D01*
X121951809Y-102818380D01*
X121928000Y-102794571D01*
X122594666Y-103032666D02*
X122570857Y-103008857D01*
X122523238Y-102937428D01*
X122499428Y-102889809D01*
X122475619Y-102818380D01*
X122451809Y-102699333D01*
X122451809Y-102604095D01*
X122475619Y-102485047D01*
X122499428Y-102413619D01*
X122523238Y-102366000D01*
X122570857Y-102294571D01*
X122594666Y-102270761D01*
X123023238Y-102342190D02*
X122785142Y-102342190D01*
X122761333Y-102580285D01*
X122785142Y-102556476D01*
X122832761Y-102532666D01*
X122951809Y-102532666D01*
X122999428Y-102556476D01*
X123023238Y-102580285D01*
X123047047Y-102627904D01*
X123047047Y-102746952D01*
X123023238Y-102794571D01*
X122999428Y-102818380D01*
X122951809Y-102842190D01*
X122832761Y-102842190D01*
X122785142Y-102818380D01*
X122761333Y-102794571D01*
X123189904Y-102342190D02*
X123356571Y-102842190D01*
X123523238Y-102342190D01*
X123642285Y-103032666D02*
X123666095Y-103008857D01*
X123713714Y-102937428D01*
X123737523Y-102889809D01*
X123761333Y-102818380D01*
X123785142Y-102699333D01*
X123785142Y-102604095D01*
X123761333Y-102485047D01*
X123737523Y-102413619D01*
X123713714Y-102366000D01*
X123666095Y-102294571D01*
X123642285Y-102270761D01*
X126611238Y-114280190D02*
X126920761Y-114280190D01*
X126754095Y-114470666D01*
X126825523Y-114470666D01*
X126873142Y-114494476D01*
X126896952Y-114518285D01*
X126920761Y-114565904D01*
X126920761Y-114684952D01*
X126896952Y-114732571D01*
X126873142Y-114756380D01*
X126825523Y-114780190D01*
X126682666Y-114780190D01*
X126635047Y-114756380D01*
X126611238Y-114732571D01*
X127063619Y-114280190D02*
X127230285Y-114780190D01*
X127396952Y-114280190D01*
X127516000Y-114280190D02*
X127825523Y-114280190D01*
X127658857Y-114470666D01*
X127730285Y-114470666D01*
X127777904Y-114494476D01*
X127801714Y-114518285D01*
X127825523Y-114565904D01*
X127825523Y-114684952D01*
X127801714Y-114732571D01*
X127777904Y-114756380D01*
X127730285Y-114780190D01*
X127587428Y-114780190D01*
X127539809Y-114756380D01*
X127516000Y-114732571D01*
X128182666Y-114970666D02*
X128158857Y-114946857D01*
X128111238Y-114875428D01*
X128087428Y-114827809D01*
X128063619Y-114756380D01*
X128039809Y-114637333D01*
X128039809Y-114542095D01*
X128063619Y-114423047D01*
X128087428Y-114351619D01*
X128111238Y-114304000D01*
X128158857Y-114232571D01*
X128182666Y-114208761D01*
X128611238Y-114280190D02*
X128373142Y-114280190D01*
X128349333Y-114518285D01*
X128373142Y-114494476D01*
X128420761Y-114470666D01*
X128539809Y-114470666D01*
X128587428Y-114494476D01*
X128611238Y-114518285D01*
X128635047Y-114565904D01*
X128635047Y-114684952D01*
X128611238Y-114732571D01*
X128587428Y-114756380D01*
X128539809Y-114780190D01*
X128420761Y-114780190D01*
X128373142Y-114756380D01*
X128349333Y-114732571D01*
X128777904Y-114280190D02*
X128944571Y-114780190D01*
X129111238Y-114280190D01*
X129230285Y-114970666D02*
X129254095Y-114946857D01*
X129301714Y-114875428D01*
X129325523Y-114827809D01*
X129349333Y-114756380D01*
X129373142Y-114637333D01*
X129373142Y-114542095D01*
X129349333Y-114423047D01*
X129325523Y-114351619D01*
X129301714Y-114304000D01*
X129254095Y-114232571D01*
X129230285Y-114208761D01*
X128389238Y-105898190D02*
X128698761Y-105898190D01*
X128532095Y-106088666D01*
X128603523Y-106088666D01*
X128651142Y-106112476D01*
X128674952Y-106136285D01*
X128698761Y-106183904D01*
X128698761Y-106302952D01*
X128674952Y-106350571D01*
X128651142Y-106374380D01*
X128603523Y-106398190D01*
X128460666Y-106398190D01*
X128413047Y-106374380D01*
X128389238Y-106350571D01*
X128841619Y-105898190D02*
X129008285Y-106398190D01*
X129174952Y-105898190D01*
X129294000Y-105898190D02*
X129603523Y-105898190D01*
X129436857Y-106088666D01*
X129508285Y-106088666D01*
X129555904Y-106112476D01*
X129579714Y-106136285D01*
X129603523Y-106183904D01*
X129603523Y-106302952D01*
X129579714Y-106350571D01*
X129555904Y-106374380D01*
X129508285Y-106398190D01*
X129365428Y-106398190D01*
X129317809Y-106374380D01*
X129294000Y-106350571D01*
X129960666Y-106588666D02*
X129936857Y-106564857D01*
X129889238Y-106493428D01*
X129865428Y-106445809D01*
X129841619Y-106374380D01*
X129817809Y-106255333D01*
X129817809Y-106160095D01*
X129841619Y-106041047D01*
X129865428Y-105969619D01*
X129889238Y-105922000D01*
X129936857Y-105850571D01*
X129960666Y-105826761D01*
X130389238Y-105898190D02*
X130151142Y-105898190D01*
X130127333Y-106136285D01*
X130151142Y-106112476D01*
X130198761Y-106088666D01*
X130317809Y-106088666D01*
X130365428Y-106112476D01*
X130389238Y-106136285D01*
X130413047Y-106183904D01*
X130413047Y-106302952D01*
X130389238Y-106350571D01*
X130365428Y-106374380D01*
X130317809Y-106398190D01*
X130198761Y-106398190D01*
X130151142Y-106374380D01*
X130127333Y-106350571D01*
X130555904Y-105898190D02*
X130722571Y-106398190D01*
X130889238Y-105898190D01*
X131008285Y-106588666D02*
X131032095Y-106564857D01*
X131079714Y-106493428D01*
X131103523Y-106445809D01*
X131127333Y-106374380D01*
X131151142Y-106255333D01*
X131151142Y-106160095D01*
X131127333Y-106041047D01*
X131103523Y-105969619D01*
X131079714Y-105922000D01*
X131032095Y-105850571D01*
X131008285Y-105826761D01*
D12*
X120285238Y-131739714D02*
X120285238Y-132739714D01*
X120285238Y-131787333D02*
X120380476Y-131739714D01*
X120570952Y-131739714D01*
X120666190Y-131787333D01*
X120713809Y-131834952D01*
X120761428Y-131930190D01*
X120761428Y-132215904D01*
X120713809Y-132311142D01*
X120666190Y-132358761D01*
X120570952Y-132406380D01*
X120380476Y-132406380D01*
X120285238Y-132358761D01*
X121190000Y-132406380D02*
X121190000Y-131739714D01*
X121190000Y-131406380D02*
X121142380Y-131454000D01*
X121190000Y-131501619D01*
X121237619Y-131454000D01*
X121190000Y-131406380D01*
X121190000Y-131501619D01*
X122094761Y-132358761D02*
X121999523Y-132406380D01*
X121809047Y-132406380D01*
X121713809Y-132358761D01*
X121666190Y-132311142D01*
X121618571Y-132215904D01*
X121618571Y-131930190D01*
X121666190Y-131834952D01*
X121713809Y-131787333D01*
X121809047Y-131739714D01*
X121999523Y-131739714D01*
X122094761Y-131787333D01*
X122666190Y-132406380D02*
X122570952Y-132358761D01*
X122523333Y-132311142D01*
X122475714Y-132215904D01*
X122475714Y-131930190D01*
X122523333Y-131834952D01*
X122570952Y-131787333D01*
X122666190Y-131739714D01*
X122809047Y-131739714D01*
X122904285Y-131787333D01*
X122951904Y-131834952D01*
X122999523Y-131930190D01*
X122999523Y-132215904D01*
X122951904Y-132311142D01*
X122904285Y-132358761D01*
X122809047Y-132406380D01*
X122666190Y-132406380D01*
X123190000Y-132501619D02*
X123951904Y-132501619D01*
X124190000Y-132406380D02*
X124190000Y-131406380D01*
X124618571Y-132406380D02*
X124618571Y-131882571D01*
X124570952Y-131787333D01*
X124475714Y-131739714D01*
X124332857Y-131739714D01*
X124237619Y-131787333D01*
X124190000Y-131834952D01*
X125523333Y-132406380D02*
X125523333Y-131882571D01*
X125475714Y-131787333D01*
X125380476Y-131739714D01*
X125190000Y-131739714D01*
X125094761Y-131787333D01*
X125523333Y-132358761D02*
X125428095Y-132406380D01*
X125190000Y-132406380D01*
X125094761Y-132358761D01*
X125047142Y-132263523D01*
X125047142Y-132168285D01*
X125094761Y-132073047D01*
X125190000Y-132025428D01*
X125428095Y-132025428D01*
X125523333Y-131977809D01*
X125856666Y-131739714D02*
X126237619Y-131739714D01*
X125999523Y-131406380D02*
X125999523Y-132263523D01*
X126047142Y-132358761D01*
X126142380Y-132406380D01*
X126237619Y-132406380D01*
X120285238Y-133389714D02*
X120475714Y-134056380D01*
X120666190Y-133580190D01*
X120856666Y-134056380D01*
X121047142Y-133389714D01*
X121809047Y-134008761D02*
X121713809Y-134056380D01*
X121523333Y-134056380D01*
X121428095Y-134008761D01*
X121380476Y-133913523D01*
X121380476Y-133532571D01*
X121428095Y-133437333D01*
X121523333Y-133389714D01*
X121713809Y-133389714D01*
X121809047Y-133437333D01*
X121856666Y-133532571D01*
X121856666Y-133627809D01*
X121380476Y-133723047D01*
X122285238Y-134056380D02*
X122285238Y-133389714D01*
X122285238Y-133056380D02*
X122237619Y-133104000D01*
X122285238Y-133151619D01*
X122332857Y-133104000D01*
X122285238Y-133056380D01*
X122285238Y-133151619D01*
X123190000Y-133389714D02*
X123190000Y-134199238D01*
X123142380Y-134294476D01*
X123094761Y-134342095D01*
X122999523Y-134389714D01*
X122856666Y-134389714D01*
X122761428Y-134342095D01*
X123190000Y-134008761D02*
X123094761Y-134056380D01*
X122904285Y-134056380D01*
X122809047Y-134008761D01*
X122761428Y-133961142D01*
X122713809Y-133865904D01*
X122713809Y-133580190D01*
X122761428Y-133484952D01*
X122809047Y-133437333D01*
X122904285Y-133389714D01*
X123094761Y-133389714D01*
X123190000Y-133437333D01*
X124094761Y-133389714D02*
X124094761Y-134056380D01*
X123666190Y-133389714D02*
X123666190Y-133913523D01*
X123713809Y-134008761D01*
X123809047Y-134056380D01*
X123951904Y-134056380D01*
X124047142Y-134008761D01*
X124094761Y-133961142D01*
X124570952Y-133961142D02*
X124618571Y-134008761D01*
X124570952Y-134056380D01*
X124523333Y-134008761D01*
X124570952Y-133961142D01*
X124570952Y-134056380D01*
X125190000Y-134056380D02*
X125094761Y-134008761D01*
X125047142Y-133913523D01*
X125047142Y-133056380D01*
X125999523Y-133389714D02*
X125999523Y-134056380D01*
X125570952Y-133389714D02*
X125570952Y-133913523D01*
X125618571Y-134008761D01*
X125713809Y-134056380D01*
X125856666Y-134056380D01*
X125951904Y-134008761D01*
X125999523Y-133961142D01*
X119809047Y-135039714D02*
X120047142Y-135706380D01*
X120285238Y-135039714D01*
X121190000Y-135706380D02*
X120618571Y-135706380D01*
X120904285Y-135706380D02*
X120904285Y-134706380D01*
X120809047Y-134849238D01*
X120713809Y-134944476D01*
X120618571Y-134992095D01*
X121618571Y-135611142D02*
X121666190Y-135658761D01*
X121618571Y-135706380D01*
X121570952Y-135658761D01*
X121618571Y-135611142D01*
X121618571Y-135706380D01*
X122618571Y-135706380D02*
X122047142Y-135706380D01*
X122332857Y-135706380D02*
X122332857Y-134706380D01*
X122237619Y-134849238D01*
X122142380Y-134944476D01*
X122047142Y-134992095D01*
X124237619Y-135039714D02*
X124237619Y-135706380D01*
X123999523Y-134658761D02*
X123761428Y-135373047D01*
X124380476Y-135373047D01*
X125475714Y-134658761D02*
X124618571Y-135944476D01*
X125761428Y-134801619D02*
X125809047Y-134754000D01*
X125904285Y-134706380D01*
X126142380Y-134706380D01*
X126237619Y-134754000D01*
X126285238Y-134801619D01*
X126332857Y-134896857D01*
X126332857Y-134992095D01*
X126285238Y-135134952D01*
X125713809Y-135706380D01*
X126332857Y-135706380D01*
X127285238Y-135706380D02*
X126713809Y-135706380D01*
X126999523Y-135706380D02*
X126999523Y-134706380D01*
X126904285Y-134849238D01*
X126809047Y-134944476D01*
X126713809Y-134992095D01*
D11*
X112895238Y-137902190D02*
X113204761Y-137902190D01*
X113038095Y-138092666D01*
X113109523Y-138092666D01*
X113157142Y-138116476D01*
X113180952Y-138140285D01*
X113204761Y-138187904D01*
X113204761Y-138306952D01*
X113180952Y-138354571D01*
X113157142Y-138378380D01*
X113109523Y-138402190D01*
X112966666Y-138402190D01*
X112919047Y-138378380D01*
X112895238Y-138354571D01*
X113347619Y-137902190D02*
X113514285Y-138402190D01*
X113680952Y-137902190D01*
X113800000Y-137902190D02*
X114109523Y-137902190D01*
X113942857Y-138092666D01*
X114014285Y-138092666D01*
X114061904Y-138116476D01*
X114085714Y-138140285D01*
X114109523Y-138187904D01*
X114109523Y-138306952D01*
X114085714Y-138354571D01*
X114061904Y-138378380D01*
X114014285Y-138402190D01*
X113871428Y-138402190D01*
X113823809Y-138378380D01*
X113800000Y-138354571D01*
X114466666Y-138592666D02*
X114442857Y-138568857D01*
X114395238Y-138497428D01*
X114371428Y-138449809D01*
X114347619Y-138378380D01*
X114323809Y-138259333D01*
X114323809Y-138164095D01*
X114347619Y-138045047D01*
X114371428Y-137973619D01*
X114395238Y-137926000D01*
X114442857Y-137854571D01*
X114466666Y-137830761D01*
X114895238Y-137902190D02*
X114657142Y-137902190D01*
X114633333Y-138140285D01*
X114657142Y-138116476D01*
X114704761Y-138092666D01*
X114823809Y-138092666D01*
X114871428Y-138116476D01*
X114895238Y-138140285D01*
X114919047Y-138187904D01*
X114919047Y-138306952D01*
X114895238Y-138354571D01*
X114871428Y-138378380D01*
X114823809Y-138402190D01*
X114704761Y-138402190D01*
X114657142Y-138378380D01*
X114633333Y-138354571D01*
X115061904Y-137902190D02*
X115228571Y-138402190D01*
X115395238Y-137902190D01*
X115514285Y-138592666D02*
X115538095Y-138568857D01*
X115585714Y-138497428D01*
X115609523Y-138449809D01*
X115633333Y-138378380D01*
X115657142Y-138259333D01*
X115657142Y-138164095D01*
X115633333Y-138045047D01*
X115609523Y-137973619D01*
X115585714Y-137926000D01*
X115538095Y-137854571D01*
X115514285Y-137830761D01*
X104259238Y-137902190D02*
X104568761Y-137902190D01*
X104402095Y-138092666D01*
X104473523Y-138092666D01*
X104521142Y-138116476D01*
X104544952Y-138140285D01*
X104568761Y-138187904D01*
X104568761Y-138306952D01*
X104544952Y-138354571D01*
X104521142Y-138378380D01*
X104473523Y-138402190D01*
X104330666Y-138402190D01*
X104283047Y-138378380D01*
X104259238Y-138354571D01*
X104711619Y-137902190D02*
X104878285Y-138402190D01*
X105044952Y-137902190D01*
X105164000Y-137902190D02*
X105473523Y-137902190D01*
X105306857Y-138092666D01*
X105378285Y-138092666D01*
X105425904Y-138116476D01*
X105449714Y-138140285D01*
X105473523Y-138187904D01*
X105473523Y-138306952D01*
X105449714Y-138354571D01*
X105425904Y-138378380D01*
X105378285Y-138402190D01*
X105235428Y-138402190D01*
X105187809Y-138378380D01*
X105164000Y-138354571D01*
X105830666Y-138592666D02*
X105806857Y-138568857D01*
X105759238Y-138497428D01*
X105735428Y-138449809D01*
X105711619Y-138378380D01*
X105687809Y-138259333D01*
X105687809Y-138164095D01*
X105711619Y-138045047D01*
X105735428Y-137973619D01*
X105759238Y-137926000D01*
X105806857Y-137854571D01*
X105830666Y-137830761D01*
X106259238Y-137902190D02*
X106021142Y-137902190D01*
X105997333Y-138140285D01*
X106021142Y-138116476D01*
X106068761Y-138092666D01*
X106187809Y-138092666D01*
X106235428Y-138116476D01*
X106259238Y-138140285D01*
X106283047Y-138187904D01*
X106283047Y-138306952D01*
X106259238Y-138354571D01*
X106235428Y-138378380D01*
X106187809Y-138402190D01*
X106068761Y-138402190D01*
X106021142Y-138378380D01*
X105997333Y-138354571D01*
X106425904Y-137902190D02*
X106592571Y-138402190D01*
X106759238Y-137902190D01*
X106878285Y-138592666D02*
X106902095Y-138568857D01*
X106949714Y-138497428D01*
X106973523Y-138449809D01*
X106997333Y-138378380D01*
X107021142Y-138259333D01*
X107021142Y-138164095D01*
X106997333Y-138045047D01*
X106973523Y-137973619D01*
X106949714Y-137926000D01*
X106902095Y-137854571D01*
X106878285Y-137830761D01*
X109085238Y-129012190D02*
X109394761Y-129012190D01*
X109228095Y-129202666D01*
X109299523Y-129202666D01*
X109347142Y-129226476D01*
X109370952Y-129250285D01*
X109394761Y-129297904D01*
X109394761Y-129416952D01*
X109370952Y-129464571D01*
X109347142Y-129488380D01*
X109299523Y-129512190D01*
X109156666Y-129512190D01*
X109109047Y-129488380D01*
X109085238Y-129464571D01*
X109537619Y-129012190D02*
X109704285Y-129512190D01*
X109870952Y-129012190D01*
X109990000Y-129012190D02*
X110299523Y-129012190D01*
X110132857Y-129202666D01*
X110204285Y-129202666D01*
X110251904Y-129226476D01*
X110275714Y-129250285D01*
X110299523Y-129297904D01*
X110299523Y-129416952D01*
X110275714Y-129464571D01*
X110251904Y-129488380D01*
X110204285Y-129512190D01*
X110061428Y-129512190D01*
X110013809Y-129488380D01*
X109990000Y-129464571D01*
X110656666Y-129702666D02*
X110632857Y-129678857D01*
X110585238Y-129607428D01*
X110561428Y-129559809D01*
X110537619Y-129488380D01*
X110513809Y-129369333D01*
X110513809Y-129274095D01*
X110537619Y-129155047D01*
X110561428Y-129083619D01*
X110585238Y-129036000D01*
X110632857Y-128964571D01*
X110656666Y-128940761D01*
X111085238Y-129012190D02*
X110847142Y-129012190D01*
X110823333Y-129250285D01*
X110847142Y-129226476D01*
X110894761Y-129202666D01*
X111013809Y-129202666D01*
X111061428Y-129226476D01*
X111085238Y-129250285D01*
X111109047Y-129297904D01*
X111109047Y-129416952D01*
X111085238Y-129464571D01*
X111061428Y-129488380D01*
X111013809Y-129512190D01*
X110894761Y-129512190D01*
X110847142Y-129488380D01*
X110823333Y-129464571D01*
X111251904Y-129012190D02*
X111418571Y-129512190D01*
X111585238Y-129012190D01*
X111704285Y-129702666D02*
X111728095Y-129678857D01*
X111775714Y-129607428D01*
X111799523Y-129559809D01*
X111823333Y-129488380D01*
X111847142Y-129369333D01*
X111847142Y-129274095D01*
X111823333Y-129155047D01*
X111799523Y-129083619D01*
X111775714Y-129036000D01*
X111728095Y-128964571D01*
X111704285Y-128940761D01*
X98990161Y-129139190D02*
X98752066Y-129139190D01*
X98728257Y-129377285D01*
X98752066Y-129353476D01*
X98799685Y-129329666D01*
X98918733Y-129329666D01*
X98966352Y-129353476D01*
X98990161Y-129377285D01*
X99013971Y-129424904D01*
X99013971Y-129543952D01*
X98990161Y-129591571D01*
X98966352Y-129615380D01*
X98918733Y-129639190D01*
X98799685Y-129639190D01*
X98752066Y-129615380D01*
X98728257Y-129591571D01*
X99156828Y-129139190D02*
X99323495Y-129639190D01*
X99490161Y-129139190D01*
X87560161Y-129139190D02*
X87322066Y-129139190D01*
X87298257Y-129377285D01*
X87322066Y-129353476D01*
X87369685Y-129329666D01*
X87488733Y-129329666D01*
X87536352Y-129353476D01*
X87560161Y-129377285D01*
X87583971Y-129424904D01*
X87583971Y-129543952D01*
X87560161Y-129591571D01*
X87536352Y-129615380D01*
X87488733Y-129639190D01*
X87369685Y-129639190D01*
X87322066Y-129615380D01*
X87298257Y-129591571D01*
X87726828Y-129139190D02*
X87893495Y-129639190D01*
X88060161Y-129139190D01*
X95926352Y-129139190D02*
X96235876Y-129139190D01*
X96069209Y-129329666D01*
X96140638Y-129329666D01*
X96188257Y-129353476D01*
X96212066Y-129377285D01*
X96235876Y-129424904D01*
X96235876Y-129543952D01*
X96212066Y-129591571D01*
X96188257Y-129615380D01*
X96140638Y-129639190D01*
X95997780Y-129639190D01*
X95950161Y-129615380D01*
X95926352Y-129591571D01*
X96378733Y-129139190D02*
X96545400Y-129639190D01*
X96712066Y-129139190D01*
X96831114Y-129139190D02*
X97140638Y-129139190D01*
X96973971Y-129329666D01*
X97045400Y-129329666D01*
X97093019Y-129353476D01*
X97116828Y-129377285D01*
X97140638Y-129424904D01*
X97140638Y-129543952D01*
X97116828Y-129591571D01*
X97093019Y-129615380D01*
X97045400Y-129639190D01*
X96902542Y-129639190D01*
X96854923Y-129615380D01*
X96831114Y-129591571D01*
X84496352Y-129139190D02*
X84805876Y-129139190D01*
X84639209Y-129329666D01*
X84710638Y-129329666D01*
X84758257Y-129353476D01*
X84782066Y-129377285D01*
X84805876Y-129424904D01*
X84805876Y-129543952D01*
X84782066Y-129591571D01*
X84758257Y-129615380D01*
X84710638Y-129639190D01*
X84567780Y-129639190D01*
X84520161Y-129615380D01*
X84496352Y-129591571D01*
X84948733Y-129139190D02*
X85115400Y-129639190D01*
X85282066Y-129139190D01*
X85401114Y-129139190D02*
X85710638Y-129139190D01*
X85543971Y-129329666D01*
X85615400Y-129329666D01*
X85663019Y-129353476D01*
X85686828Y-129377285D01*
X85710638Y-129424904D01*
X85710638Y-129543952D01*
X85686828Y-129591571D01*
X85663019Y-129615380D01*
X85615400Y-129639190D01*
X85472542Y-129639190D01*
X85424923Y-129615380D01*
X85401114Y-129591571D01*
X96450161Y-138029190D02*
X96212066Y-138029190D01*
X96188257Y-138267285D01*
X96212066Y-138243476D01*
X96259685Y-138219666D01*
X96378733Y-138219666D01*
X96426352Y-138243476D01*
X96450161Y-138267285D01*
X96473971Y-138314904D01*
X96473971Y-138433952D01*
X96450161Y-138481571D01*
X96426352Y-138505380D01*
X96378733Y-138529190D01*
X96259685Y-138529190D01*
X96212066Y-138505380D01*
X96188257Y-138481571D01*
X96616828Y-138029190D02*
X96783495Y-138529190D01*
X96950161Y-138029190D01*
X80891238Y-137902190D02*
X81200761Y-137902190D01*
X81034095Y-138092666D01*
X81105523Y-138092666D01*
X81153142Y-138116476D01*
X81176952Y-138140285D01*
X81200761Y-138187904D01*
X81200761Y-138306952D01*
X81176952Y-138354571D01*
X81153142Y-138378380D01*
X81105523Y-138402190D01*
X80962666Y-138402190D01*
X80915047Y-138378380D01*
X80891238Y-138354571D01*
X81343619Y-137902190D02*
X81510285Y-138402190D01*
X81676952Y-137902190D01*
X81796000Y-137902190D02*
X82105523Y-137902190D01*
X81938857Y-138092666D01*
X82010285Y-138092666D01*
X82057904Y-138116476D01*
X82081714Y-138140285D01*
X82105523Y-138187904D01*
X82105523Y-138306952D01*
X82081714Y-138354571D01*
X82057904Y-138378380D01*
X82010285Y-138402190D01*
X81867428Y-138402190D01*
X81819809Y-138378380D01*
X81796000Y-138354571D01*
X82462666Y-138592666D02*
X82438857Y-138568857D01*
X82391238Y-138497428D01*
X82367428Y-138449809D01*
X82343619Y-138378380D01*
X82319809Y-138259333D01*
X82319809Y-138164095D01*
X82343619Y-138045047D01*
X82367428Y-137973619D01*
X82391238Y-137926000D01*
X82438857Y-137854571D01*
X82462666Y-137830761D01*
X82891238Y-137902190D02*
X82653142Y-137902190D01*
X82629333Y-138140285D01*
X82653142Y-138116476D01*
X82700761Y-138092666D01*
X82819809Y-138092666D01*
X82867428Y-138116476D01*
X82891238Y-138140285D01*
X82915047Y-138187904D01*
X82915047Y-138306952D01*
X82891238Y-138354571D01*
X82867428Y-138378380D01*
X82819809Y-138402190D01*
X82700761Y-138402190D01*
X82653142Y-138378380D01*
X82629333Y-138354571D01*
X83057904Y-137902190D02*
X83224571Y-138402190D01*
X83391238Y-137902190D01*
X83510285Y-138592666D02*
X83534095Y-138568857D01*
X83581714Y-138497428D01*
X83605523Y-138449809D01*
X83629333Y-138378380D01*
X83653142Y-138259333D01*
X83653142Y-138164095D01*
X83629333Y-138045047D01*
X83605523Y-137973619D01*
X83581714Y-137926000D01*
X83534095Y-137854571D01*
X83510285Y-137830761D01*
X93386352Y-138029190D02*
X93695876Y-138029190D01*
X93529209Y-138219666D01*
X93600638Y-138219666D01*
X93648257Y-138243476D01*
X93672066Y-138267285D01*
X93695876Y-138314904D01*
X93695876Y-138433952D01*
X93672066Y-138481571D01*
X93648257Y-138505380D01*
X93600638Y-138529190D01*
X93457780Y-138529190D01*
X93410161Y-138505380D01*
X93386352Y-138481571D01*
X93838733Y-138029190D02*
X94005400Y-138529190D01*
X94172066Y-138029190D01*
X94291114Y-138029190D02*
X94600638Y-138029190D01*
X94433971Y-138219666D01*
X94505400Y-138219666D01*
X94553019Y-138243476D01*
X94576828Y-138267285D01*
X94600638Y-138314904D01*
X94600638Y-138433952D01*
X94576828Y-138481571D01*
X94553019Y-138505380D01*
X94505400Y-138529190D01*
X94362542Y-138529190D01*
X94314923Y-138505380D01*
X94291114Y-138481571D01*
D13*
%TO.C,U1*%
X118210000Y-115740000D02*
X118210000Y-115340000D01*
X118210000Y-118340000D02*
X118210000Y-117940000D01*
X118210000Y-106340000D02*
X118210000Y-113140000D01*
X107810000Y-106340000D02*
X108210000Y-106340000D01*
X100110000Y-106340000D02*
X100510000Y-106340000D01*
X74710000Y-106340000D02*
X75110000Y-106340000D01*
X67210000Y-106340000D02*
X67510000Y-106340000D01*
X90010000Y-106340000D02*
X90410000Y-106340000D01*
X105210000Y-106340000D02*
X105610000Y-106340000D01*
X84910000Y-106340000D02*
X85310000Y-106340000D01*
X79810000Y-106340000D02*
X80210000Y-106340000D01*
X92510000Y-106340000D02*
X92910000Y-106340000D01*
X97610000Y-106340000D02*
X98010000Y-106340000D01*
X112810000Y-106340000D02*
X113210000Y-106340000D01*
X115410000Y-106340000D02*
X115810000Y-106340000D01*
X110310000Y-106340000D02*
X110710000Y-106340000D01*
X77310000Y-106340000D02*
X77710000Y-106340000D01*
X69610000Y-106340000D02*
X70010000Y-106340000D01*
X72210000Y-106340000D02*
X72610000Y-106340000D01*
X102710000Y-106340000D02*
X103110000Y-106340000D01*
X95010000Y-106340000D02*
X95410000Y-106340000D01*
X87410000Y-106340000D02*
X87810000Y-106340000D01*
X82310000Y-106340000D02*
X82710000Y-106340000D01*
X115410000Y-127340000D02*
X115810000Y-127340000D01*
X112810000Y-127340000D02*
X113210000Y-127340000D01*
X110310000Y-127340000D02*
X110710000Y-127340000D01*
X107810000Y-127340000D02*
X108210000Y-127340000D01*
X105210000Y-127340000D02*
X105610000Y-127340000D01*
X102710000Y-127340000D02*
X103110000Y-127340000D01*
X100110000Y-127340000D02*
X100510000Y-127340000D01*
X97610000Y-127340000D02*
X98010000Y-127340000D01*
X95010000Y-127340000D02*
X95410000Y-127340000D01*
X92510000Y-127340000D02*
X92910000Y-127340000D01*
X90010000Y-127340000D02*
X90410000Y-127340000D01*
X87410000Y-127340000D02*
X87810000Y-127340000D01*
X84910000Y-127340000D02*
X85310000Y-127340000D01*
X82310000Y-127340000D02*
X82710000Y-127340000D01*
X79810000Y-127340000D02*
X80210000Y-127340000D01*
X77310000Y-127340000D02*
X77710000Y-127340000D01*
X74710000Y-127340000D02*
X75110000Y-127340000D01*
X72210000Y-127340000D02*
X72610000Y-127340000D01*
X69610000Y-127340000D02*
X70010000Y-127340000D01*
X67210000Y-127340000D02*
X67510000Y-127340000D01*
X69877000Y-124333000D02*
X67210000Y-124333000D01*
X69877000Y-127340000D02*
X69877000Y-124333000D01*
X118210000Y-120540000D02*
X118210000Y-127340000D01*
X67210000Y-127340000D02*
X67210000Y-106340000D01*
D14*
%TO.C,SW1*%
X129794000Y-99822000D02*
G75*
G03*
X129794000Y-99822000I-1778000J0D01*
G01*
X124968000Y-96774000D02*
X131064000Y-96774000D01*
X124968000Y-102870000D02*
X124968000Y-96774000D01*
X131064000Y-102870000D02*
X124968000Y-102870000D01*
X131064000Y-96774000D02*
X131064000Y-102870000D01*
X130302000Y-97790000D02*
G75*
G03*
X130302000Y-97790000I-254000J0D01*
G01*
X130302000Y-101854000D02*
G75*
G03*
X130302000Y-101854000I-254000J0D01*
G01*
X126238000Y-101854000D02*
G75*
G03*
X126238000Y-101854000I-254000J0D01*
G01*
X126238000Y-97790000D02*
G75*
G03*
X126238000Y-97790000I-254000J0D01*
G01*
%TO.C,J1*%
X70866000Y-130048000D02*
X89154000Y-130048000D01*
X70866000Y-135890000D02*
X70866000Y-130048000D01*
X89154000Y-135890000D02*
X70866000Y-135890000D01*
X89154000Y-130150000D02*
X89154000Y-135890000D01*
X72644000Y-135382000D02*
X87376000Y-135382000D01*
X72644000Y-135890000D02*
X72644000Y-135382000D01*
X72898000Y-132842000D02*
X71882000Y-132842000D01*
X72898000Y-133858000D02*
X72898000Y-132842000D01*
X71882000Y-133858000D02*
X72898000Y-133858000D01*
X71882000Y-132842000D02*
X71882000Y-133858000D01*
X74422000Y-132842000D02*
X74422000Y-133858000D01*
X75438000Y-133858000D02*
X74422000Y-133858000D01*
X75438000Y-132842000D02*
X75438000Y-133858000D01*
X74422000Y-132842000D02*
X75438000Y-132842000D01*
X77978000Y-132842000D02*
X76962000Y-132842000D01*
X77978000Y-133858000D02*
X77978000Y-132842000D01*
X76962000Y-133858000D02*
X77978000Y-133858000D01*
X76962000Y-132842000D02*
X76962000Y-133858000D01*
X80518000Y-132842000D02*
X79502000Y-132842000D01*
X80518000Y-133858000D02*
X80518000Y-132842000D01*
X79502000Y-133858000D02*
X80518000Y-133858000D01*
X79502000Y-132842000D02*
X79502000Y-133858000D01*
X87376000Y-135382000D02*
X87376000Y-135890000D01*
X82042000Y-133858000D02*
X82042000Y-132842000D01*
X83058000Y-133858000D02*
X82042000Y-133858000D01*
X83058000Y-132842000D02*
X83058000Y-133858000D01*
X82042000Y-132842000D02*
X83058000Y-132842000D01*
X84455000Y-132842000D02*
X84455000Y-133858000D01*
X84455000Y-133858000D02*
X85471000Y-133858000D01*
X85471000Y-133858000D02*
X85471000Y-132842000D01*
X85471000Y-132842000D02*
X84455000Y-132842000D01*
X87122000Y-132842000D02*
X87122000Y-133858000D01*
X87122000Y-133858000D02*
X88138000Y-133858000D01*
X88138000Y-133858000D02*
X88138000Y-132842000D01*
X88138000Y-132842000D02*
X87122000Y-132842000D01*
%TO.C,J6*%
X84836000Y-138938000D02*
X98050000Y-138938000D01*
X84836000Y-144780000D02*
X84836000Y-138938000D01*
X95504000Y-144780000D02*
X84836000Y-144780000D01*
X98044000Y-138938000D02*
X98044000Y-144780000D01*
X86614000Y-144272000D02*
X93726000Y-144272000D01*
X86614000Y-144780000D02*
X86614000Y-144272000D01*
X86868000Y-141732000D02*
X85852000Y-141732000D01*
X86868000Y-142748000D02*
X86868000Y-141732000D01*
X85852000Y-142748000D02*
X86868000Y-142748000D01*
X85852000Y-141732000D02*
X85852000Y-142748000D01*
X88392000Y-141732000D02*
X88392000Y-142748000D01*
X89408000Y-142748000D02*
X88392000Y-142748000D01*
X89408000Y-141732000D02*
X89408000Y-142748000D01*
X88392000Y-141732000D02*
X89408000Y-141732000D01*
X91948000Y-141732000D02*
X90932000Y-141732000D01*
X91948000Y-142748000D02*
X91948000Y-141732000D01*
X90932000Y-142748000D02*
X91948000Y-142748000D01*
X90932000Y-141732000D02*
X90932000Y-142748000D01*
X94488000Y-141732000D02*
X93472000Y-141732000D01*
X94488000Y-142748000D02*
X94488000Y-141732000D01*
X93472000Y-142748000D02*
X94488000Y-142748000D01*
X93472000Y-141732000D02*
X93472000Y-142748000D01*
X95504000Y-144780000D02*
X98050000Y-144780000D01*
X96266000Y-144272000D02*
X96266000Y-144780000D01*
X93726000Y-144272000D02*
X96266000Y-144272000D01*
X96012000Y-142748000D02*
X96012000Y-141732000D01*
X97028000Y-142748000D02*
X96012000Y-142748000D01*
X97028000Y-141732000D02*
X97028000Y-142748000D01*
X96012000Y-141732000D02*
X97028000Y-141732000D01*
%TO.C,J13*%
X79502000Y-96314000D02*
X79502000Y-102314000D01*
X73660000Y-96266000D02*
X79502000Y-96266000D01*
X73660000Y-102314000D02*
X73660000Y-96314000D01*
X79400000Y-102362000D02*
X73660000Y-102362000D01*
X74168000Y-100330000D02*
X73660000Y-100330000D01*
X74168000Y-98298000D02*
X74168000Y-100314000D01*
X73660000Y-98298000D02*
X74168000Y-98298000D01*
X76708000Y-98552000D02*
X76708000Y-97536000D01*
X75692000Y-98552000D02*
X76708000Y-98552000D01*
X75692000Y-97536000D02*
X75692000Y-98552000D01*
X76708000Y-97536000D02*
X75692000Y-97536000D01*
X76708000Y-100076000D02*
X75692000Y-100076000D01*
X75692000Y-101092000D02*
X75692000Y-100076000D01*
X76708000Y-101092000D02*
X75692000Y-101092000D01*
X76708000Y-100076000D02*
X76708000Y-101092000D01*
%TO.C,J2*%
X84074000Y-138938000D02*
X84074000Y-139446000D01*
X73406000Y-138938000D02*
X84074000Y-138938000D01*
X73406000Y-144780000D02*
X73406000Y-138938000D01*
X84074000Y-144780000D02*
X73406000Y-144780000D01*
X84074000Y-139446000D02*
X84074000Y-144780000D01*
X82296000Y-144272000D02*
X82296000Y-144780000D01*
X75184000Y-144272000D02*
X82296000Y-144272000D01*
X75184000Y-144780000D02*
X75184000Y-144272000D01*
X75438000Y-141732000D02*
X74422000Y-141732000D01*
X75438000Y-142748000D02*
X75438000Y-141732000D01*
X74422000Y-142748000D02*
X75438000Y-142748000D01*
X74422000Y-141732000D02*
X74422000Y-142748000D01*
X76962000Y-141732000D02*
X76962000Y-142748000D01*
X77978000Y-142748000D02*
X76962000Y-142748000D01*
X77978000Y-141732000D02*
X77978000Y-142748000D01*
X76962000Y-141732000D02*
X77978000Y-141732000D01*
X80518000Y-141732000D02*
X79502000Y-141732000D01*
X80518000Y-142748000D02*
X80518000Y-141732000D01*
X79502000Y-142748000D02*
X80518000Y-142748000D01*
X79502000Y-141732000D02*
X79502000Y-142748000D01*
X83058000Y-141732000D02*
X82042000Y-141732000D01*
X83058000Y-142748000D02*
X83058000Y-141732000D01*
X82042000Y-142748000D02*
X83058000Y-142748000D01*
X82042000Y-141732000D02*
X82042000Y-142748000D01*
%TO.C,J3*%
X112014000Y-130048000D02*
X112014000Y-130556000D01*
X101346000Y-130048000D02*
X112014000Y-130048000D01*
X101346000Y-135890000D02*
X101346000Y-130048000D01*
X112014000Y-135890000D02*
X101346000Y-135890000D01*
X112014000Y-130556000D02*
X112014000Y-135890000D01*
X110236000Y-135382000D02*
X110236000Y-135890000D01*
X103124000Y-135382000D02*
X110236000Y-135382000D01*
X103124000Y-135890000D02*
X103124000Y-135382000D01*
X103378000Y-132842000D02*
X102362000Y-132842000D01*
X103378000Y-133858000D02*
X103378000Y-132842000D01*
X102362000Y-133858000D02*
X103378000Y-133858000D01*
X102362000Y-132842000D02*
X102362000Y-133858000D01*
X104902000Y-132842000D02*
X104902000Y-133858000D01*
X105918000Y-133858000D02*
X104902000Y-133858000D01*
X105918000Y-132842000D02*
X105918000Y-133858000D01*
X104902000Y-132842000D02*
X105918000Y-132842000D01*
X108458000Y-132842000D02*
X107442000Y-132842000D01*
X108458000Y-133858000D02*
X108458000Y-132842000D01*
X107442000Y-133858000D02*
X108458000Y-133858000D01*
X107442000Y-132842000D02*
X107442000Y-133858000D01*
X110998000Y-132842000D02*
X109982000Y-132842000D01*
X110998000Y-133858000D02*
X110998000Y-132842000D01*
X109982000Y-133858000D02*
X110998000Y-133858000D01*
X109982000Y-132842000D02*
X109982000Y-133858000D01*
%TO.C,J4*%
X98806000Y-138938000D02*
X106934000Y-138938000D01*
X98806000Y-144780000D02*
X98806000Y-138938000D01*
X106934000Y-144780000D02*
X98806000Y-144780000D01*
X106934000Y-139040000D02*
X106934000Y-144780000D01*
X105156000Y-144272000D02*
X105156000Y-144780000D01*
X100584000Y-144272000D02*
X105156000Y-144272000D01*
X100584000Y-144780000D02*
X100584000Y-144272000D01*
X100838000Y-141732000D02*
X99822000Y-141732000D01*
X100838000Y-142748000D02*
X100838000Y-141732000D01*
X99822000Y-142748000D02*
X100838000Y-142748000D01*
X99822000Y-141732000D02*
X99822000Y-142748000D01*
X102362000Y-141732000D02*
X102362000Y-142748000D01*
X103378000Y-142748000D02*
X102362000Y-142748000D01*
X103378000Y-141732000D02*
X103378000Y-142748000D01*
X102362000Y-141732000D02*
X103378000Y-141732000D01*
X105918000Y-141732000D02*
X104902000Y-141732000D01*
X105918000Y-142748000D02*
X105918000Y-141732000D01*
X104902000Y-142748000D02*
X105918000Y-142748000D01*
X104902000Y-141732000D02*
X104902000Y-142748000D01*
%TO.C,J5*%
X107696000Y-138938000D02*
X115824000Y-138938000D01*
X107696000Y-144780000D02*
X107696000Y-138938000D01*
X115824000Y-144780000D02*
X107696000Y-144780000D01*
X115824000Y-139040000D02*
X115824000Y-144780000D01*
X114046000Y-144272000D02*
X114046000Y-144780000D01*
X109474000Y-144272000D02*
X114046000Y-144272000D01*
X109474000Y-144780000D02*
X109474000Y-144272000D01*
X109728000Y-141732000D02*
X108712000Y-141732000D01*
X109728000Y-142748000D02*
X109728000Y-141732000D01*
X108712000Y-142748000D02*
X109728000Y-142748000D01*
X108712000Y-141732000D02*
X108712000Y-142748000D01*
X111252000Y-141732000D02*
X111252000Y-142748000D01*
X112268000Y-142748000D02*
X111252000Y-142748000D01*
X112268000Y-141732000D02*
X112268000Y-142748000D01*
X111252000Y-141732000D02*
X112268000Y-141732000D01*
X114808000Y-141732000D02*
X113792000Y-141732000D01*
X114808000Y-142748000D02*
X114808000Y-141732000D01*
X113792000Y-142748000D02*
X114808000Y-142748000D01*
X113792000Y-141732000D02*
X113792000Y-142748000D01*
%TO.C,J7*%
X100584000Y-130048000D02*
X100584000Y-130556000D01*
X89916000Y-130048000D02*
X100584000Y-130048000D01*
X89916000Y-135890000D02*
X89916000Y-130048000D01*
X100584000Y-135890000D02*
X89916000Y-135890000D01*
X100584000Y-130556000D02*
X100584000Y-135890000D01*
X98806000Y-135382000D02*
X98806000Y-135890000D01*
X91694000Y-135382000D02*
X98806000Y-135382000D01*
X91694000Y-135890000D02*
X91694000Y-135382000D01*
X91948000Y-132842000D02*
X90932000Y-132842000D01*
X91948000Y-133858000D02*
X91948000Y-132842000D01*
X90932000Y-133858000D02*
X91948000Y-133858000D01*
X90932000Y-132842000D02*
X90932000Y-133858000D01*
X93472000Y-132842000D02*
X93472000Y-133858000D01*
X94488000Y-133858000D02*
X93472000Y-133858000D01*
X94488000Y-132842000D02*
X94488000Y-133858000D01*
X93472000Y-132842000D02*
X94488000Y-132842000D01*
X97028000Y-132842000D02*
X96012000Y-132842000D01*
X97028000Y-133858000D02*
X97028000Y-132842000D01*
X96012000Y-133858000D02*
X97028000Y-133858000D01*
X96012000Y-132842000D02*
X96012000Y-133858000D01*
X99568000Y-132842000D02*
X98552000Y-132842000D01*
X99568000Y-133858000D02*
X99568000Y-132842000D01*
X98552000Y-133858000D02*
X99568000Y-133858000D01*
X98552000Y-132842000D02*
X98552000Y-133858000D01*
%TO.C,J9*%
X125476000Y-122682000D02*
X125476000Y-130810000D01*
X119634000Y-122682000D02*
X125476000Y-122682000D01*
X119634000Y-130810000D02*
X119634000Y-122682000D01*
X125374000Y-130810000D02*
X119634000Y-130810000D01*
X120142000Y-129032000D02*
X119634000Y-129032000D01*
X120142000Y-124460000D02*
X120142000Y-129032000D01*
X119634000Y-124460000D02*
X120142000Y-124460000D01*
X122682000Y-124714000D02*
X122682000Y-123698000D01*
X121666000Y-124714000D02*
X122682000Y-124714000D01*
X121666000Y-123698000D02*
X121666000Y-124714000D01*
X122682000Y-123698000D02*
X121666000Y-123698000D01*
X122682000Y-126238000D02*
X121666000Y-126238000D01*
X121666000Y-127254000D02*
X121666000Y-126238000D01*
X122682000Y-127254000D02*
X121666000Y-127254000D01*
X122682000Y-126238000D02*
X122682000Y-127254000D01*
X122682000Y-129794000D02*
X122682000Y-128778000D01*
X121666000Y-129794000D02*
X122682000Y-129794000D01*
X121666000Y-128778000D02*
X121666000Y-129794000D01*
X122682000Y-128778000D02*
X121666000Y-128778000D01*
%TO.C,J14*%
X131064000Y-106934000D02*
X131064000Y-107442000D01*
X120396000Y-106934000D02*
X131064000Y-106934000D01*
X120396000Y-112776000D02*
X120396000Y-106934000D01*
X131064000Y-112776000D02*
X120396000Y-112776000D01*
X131064000Y-107442000D02*
X131064000Y-112776000D01*
X129286000Y-112268000D02*
X129286000Y-112776000D01*
X122174000Y-112268000D02*
X129286000Y-112268000D01*
X122174000Y-112776000D02*
X122174000Y-112268000D01*
X122428000Y-109728000D02*
X121412000Y-109728000D01*
X122428000Y-110744000D02*
X122428000Y-109728000D01*
X121412000Y-110744000D02*
X122428000Y-110744000D01*
X121412000Y-109728000D02*
X121412000Y-110744000D01*
X123952000Y-109728000D02*
X123952000Y-110744000D01*
X124968000Y-110744000D02*
X123952000Y-110744000D01*
X124968000Y-109728000D02*
X124968000Y-110744000D01*
X123952000Y-109728000D02*
X124968000Y-109728000D01*
X127508000Y-109728000D02*
X126492000Y-109728000D01*
X127508000Y-110744000D02*
X127508000Y-109728000D01*
X126492000Y-110744000D02*
X127508000Y-110744000D01*
X126492000Y-109728000D02*
X126492000Y-110744000D01*
X130048000Y-109728000D02*
X129032000Y-109728000D01*
X130048000Y-110744000D02*
X130048000Y-109728000D01*
X129032000Y-110744000D02*
X130048000Y-110744000D01*
X129032000Y-109728000D02*
X129032000Y-110744000D01*
%TO.C,J15*%
X81026000Y-97028000D02*
X89154000Y-97028000D01*
X81026000Y-102870000D02*
X81026000Y-97028000D01*
X89154000Y-102870000D02*
X81026000Y-102870000D01*
X89154000Y-97130000D02*
X89154000Y-102870000D01*
X87376000Y-102362000D02*
X87376000Y-102870000D01*
X82804000Y-102362000D02*
X87376000Y-102362000D01*
X82804000Y-102870000D02*
X82804000Y-102362000D01*
X83058000Y-99822000D02*
X82042000Y-99822000D01*
X83058000Y-100838000D02*
X83058000Y-99822000D01*
X82042000Y-100838000D02*
X83058000Y-100838000D01*
X82042000Y-99822000D02*
X82042000Y-100838000D01*
X84582000Y-99822000D02*
X84582000Y-100838000D01*
X85598000Y-100838000D02*
X84582000Y-100838000D01*
X85598000Y-99822000D02*
X85598000Y-100838000D01*
X84582000Y-99822000D02*
X85598000Y-99822000D01*
X88138000Y-99822000D02*
X87122000Y-99822000D01*
X88138000Y-100838000D02*
X88138000Y-99822000D01*
X87122000Y-100838000D02*
X88138000Y-100838000D01*
X87122000Y-99822000D02*
X87122000Y-100838000D01*
%TO.C,J16*%
X89916000Y-97028000D02*
X98044000Y-97028000D01*
X89916000Y-102870000D02*
X89916000Y-97028000D01*
X98044000Y-102870000D02*
X89916000Y-102870000D01*
X98044000Y-97130000D02*
X98044000Y-102870000D01*
X96266000Y-102362000D02*
X96266000Y-102870000D01*
X91694000Y-102362000D02*
X96266000Y-102362000D01*
X91694000Y-102870000D02*
X91694000Y-102362000D01*
X91948000Y-99822000D02*
X90932000Y-99822000D01*
X91948000Y-100838000D02*
X91948000Y-99822000D01*
X90932000Y-100838000D02*
X91948000Y-100838000D01*
X90932000Y-99822000D02*
X90932000Y-100838000D01*
X93472000Y-99822000D02*
X93472000Y-100838000D01*
X94488000Y-100838000D02*
X93472000Y-100838000D01*
X94488000Y-99822000D02*
X94488000Y-100838000D01*
X93472000Y-99822000D02*
X94488000Y-99822000D01*
X97028000Y-99822000D02*
X96012000Y-99822000D01*
X97028000Y-100838000D02*
X97028000Y-99822000D01*
X96012000Y-100838000D02*
X97028000Y-100838000D01*
X96012000Y-99822000D02*
X96012000Y-100838000D01*
%TO.C,J17*%
X120904000Y-115316000D02*
X129032000Y-115316000D01*
X120904000Y-121158000D02*
X120904000Y-115316000D01*
X129032000Y-121158000D02*
X120904000Y-121158000D01*
X129032000Y-115418000D02*
X129032000Y-121158000D01*
X127254000Y-120650000D02*
X127254000Y-121158000D01*
X122682000Y-120650000D02*
X127254000Y-120650000D01*
X122682000Y-121158000D02*
X122682000Y-120650000D01*
X122936000Y-118110000D02*
X121920000Y-118110000D01*
X122936000Y-119126000D02*
X122936000Y-118110000D01*
X121920000Y-119126000D02*
X122936000Y-119126000D01*
X121920000Y-118110000D02*
X121920000Y-119126000D01*
X124460000Y-118110000D02*
X124460000Y-119126000D01*
X125476000Y-119126000D02*
X124460000Y-119126000D01*
X125476000Y-118110000D02*
X125476000Y-119126000D01*
X124460000Y-118110000D02*
X125476000Y-118110000D01*
X128016000Y-118110000D02*
X127000000Y-118110000D01*
X128016000Y-119126000D02*
X128016000Y-118110000D01*
X127000000Y-119126000D02*
X128016000Y-119126000D01*
X127000000Y-118110000D02*
X127000000Y-119126000D01*
%TO.C,J18*%
X98806000Y-97028000D02*
X106934000Y-97028000D01*
X98806000Y-102870000D02*
X98806000Y-97028000D01*
X106934000Y-102870000D02*
X98806000Y-102870000D01*
X106934000Y-97130000D02*
X106934000Y-102870000D01*
X105156000Y-102362000D02*
X105156000Y-102870000D01*
X100584000Y-102362000D02*
X105156000Y-102362000D01*
X100584000Y-102870000D02*
X100584000Y-102362000D01*
X100838000Y-99822000D02*
X99822000Y-99822000D01*
X100838000Y-100838000D02*
X100838000Y-99822000D01*
X99822000Y-100838000D02*
X100838000Y-100838000D01*
X99822000Y-99822000D02*
X99822000Y-100838000D01*
X102362000Y-99822000D02*
X102362000Y-100838000D01*
X103378000Y-100838000D02*
X102362000Y-100838000D01*
X103378000Y-99822000D02*
X103378000Y-100838000D01*
X102362000Y-99822000D02*
X103378000Y-99822000D01*
X105918000Y-99822000D02*
X104902000Y-99822000D01*
X105918000Y-100838000D02*
X105918000Y-99822000D01*
X104902000Y-100838000D02*
X105918000Y-100838000D01*
X104902000Y-99822000D02*
X104902000Y-100838000D01*
%TO.C,J19*%
X123444000Y-96012000D02*
X123444000Y-96520000D01*
X107696000Y-96012000D02*
X118364000Y-96012000D01*
X107696000Y-101854000D02*
X107696000Y-96012000D01*
X118364000Y-101854000D02*
X107696000Y-101854000D01*
X123444000Y-96520000D02*
X123444000Y-101854000D01*
X109474000Y-101346000D02*
X116586000Y-101346000D01*
X109474000Y-101854000D02*
X109474000Y-101346000D01*
X109728000Y-98806000D02*
X108712000Y-98806000D01*
X109728000Y-99822000D02*
X109728000Y-98806000D01*
X108712000Y-99822000D02*
X109728000Y-99822000D01*
X108712000Y-98806000D02*
X108712000Y-99822000D01*
X111252000Y-98806000D02*
X111252000Y-99822000D01*
X112268000Y-99822000D02*
X111252000Y-99822000D01*
X112268000Y-98806000D02*
X112268000Y-99822000D01*
X111252000Y-98806000D02*
X112268000Y-98806000D01*
X114808000Y-98806000D02*
X113792000Y-98806000D01*
X114808000Y-99822000D02*
X114808000Y-98806000D01*
X113792000Y-99822000D02*
X114808000Y-99822000D01*
X113792000Y-98806000D02*
X113792000Y-99822000D01*
X117348000Y-98806000D02*
X116332000Y-98806000D01*
X117348000Y-99822000D02*
X117348000Y-98806000D01*
X116332000Y-99822000D02*
X117348000Y-99822000D01*
X116332000Y-98806000D02*
X116332000Y-99822000D01*
X118364000Y-96012000D02*
X123444000Y-96012000D01*
X118364000Y-101854000D02*
X123444000Y-101854000D01*
X121666000Y-101346000D02*
X121666000Y-101854000D01*
X116586000Y-101346000D02*
X121666000Y-101346000D01*
X118872000Y-99822000D02*
X118872000Y-98806000D01*
X119888000Y-99822000D02*
X118872000Y-99822000D01*
X119888000Y-98806000D02*
X119888000Y-99822000D01*
X118872000Y-98806000D02*
X119888000Y-98806000D01*
X122428000Y-98806000D02*
X121412000Y-98806000D01*
X122428000Y-99822000D02*
X122428000Y-98806000D01*
X121412000Y-99822000D02*
X122428000Y-99822000D01*
X121412000Y-98806000D02*
X121412000Y-99822000D01*
D13*
%TO.C,J20*%
X124517460Y-95312540D02*
X124517460Y-90112540D01*
X76197460Y-95312540D02*
X124517460Y-95312540D01*
X73597460Y-90112540D02*
X124517460Y-90112540D01*
X76197460Y-95312540D02*
X76197460Y-92712540D01*
X76197460Y-92712540D02*
X73597460Y-92712540D01*
X73597460Y-92712540D02*
X73597460Y-90112540D01*
X74927460Y-95312540D02*
X73597460Y-95312540D01*
X73597460Y-95312540D02*
X73597460Y-93982540D01*
D14*
%TO.C,J10*%
X73152000Y-96314000D02*
X73152000Y-102314000D01*
X67310000Y-96266000D02*
X73152000Y-96266000D01*
X67310000Y-102314000D02*
X67310000Y-96314000D01*
X73050000Y-102362000D02*
X67310000Y-102362000D01*
X67818000Y-100330000D02*
X67310000Y-100330000D01*
X67818000Y-98298000D02*
X67818000Y-100314000D01*
X67310000Y-98298000D02*
X67818000Y-98298000D01*
X70358000Y-98552000D02*
X70358000Y-97536000D01*
X69342000Y-98552000D02*
X70358000Y-98552000D01*
X69342000Y-97536000D02*
X69342000Y-98552000D01*
X70358000Y-97536000D02*
X69342000Y-97536000D01*
X70358000Y-100076000D02*
X69342000Y-100076000D01*
X69342000Y-101092000D02*
X69342000Y-100076000D01*
X70358000Y-101092000D02*
X69342000Y-101092000D01*
X70358000Y-100076000D02*
X70358000Y-101092000D01*
D13*
%TO.C,C1*%
X119922500Y-143352500D02*
X120547500Y-143352500D01*
X120235000Y-143665000D02*
X120235000Y-143040000D01*
X123615563Y-142800000D02*
X124680000Y-141735563D01*
X120224437Y-142800000D02*
X119160000Y-141735563D01*
X120224437Y-142800000D02*
X120860000Y-142800000D01*
X123615563Y-142800000D02*
X122980000Y-142800000D01*
X124680000Y-141735563D02*
X124680000Y-137280000D01*
X119160000Y-141735563D02*
X119160000Y-137280000D01*
X119160000Y-137280000D02*
X120860000Y-137280000D01*
X124680000Y-137280000D02*
X122980000Y-137280000D01*
D15*
%TO.C,J11*%
X73152000Y-104902000D02*
X73152000Y-102362000D01*
X73152000Y-102362000D02*
X75692000Y-102362000D01*
X75692000Y-102362000D02*
X75692000Y-104902000D01*
X75692000Y-104902000D02*
X73152000Y-104902000D01*
%TO.C,J12*%
X78486000Y-104902000D02*
X78486000Y-102362000D01*
X78486000Y-102362000D02*
X81026000Y-102362000D01*
X81026000Y-102362000D02*
X81026000Y-104902000D01*
X81026000Y-104902000D02*
X78486000Y-104902000D01*
%TO.C,U1*%
D12*
X84226476Y-95904095D02*
X84264571Y-95866000D01*
X84340761Y-95827904D01*
X84531238Y-95827904D01*
X84607428Y-95866000D01*
X84645523Y-95904095D01*
X84683619Y-95980285D01*
X84683619Y-96056476D01*
X84645523Y-96170761D01*
X84188380Y-96627904D01*
X84683619Y-96627904D01*
X85140761Y-96170761D02*
X85064571Y-96132666D01*
X85026476Y-96094571D01*
X84988380Y-96018380D01*
X84988380Y-95980285D01*
X85026476Y-95904095D01*
X85064571Y-95866000D01*
X85140761Y-95827904D01*
X85293142Y-95827904D01*
X85369333Y-95866000D01*
X85407428Y-95904095D01*
X85445523Y-95980285D01*
X85445523Y-96018380D01*
X85407428Y-96094571D01*
X85369333Y-96132666D01*
X85293142Y-96170761D01*
X85140761Y-96170761D01*
X85064571Y-96208857D01*
X85026476Y-96246952D01*
X84988380Y-96323142D01*
X84988380Y-96475523D01*
X85026476Y-96551714D01*
X85064571Y-96589809D01*
X85140761Y-96627904D01*
X85293142Y-96627904D01*
X85369333Y-96589809D01*
X85407428Y-96551714D01*
X85445523Y-96475523D01*
X85445523Y-96323142D01*
X85407428Y-96246952D01*
X85369333Y-96208857D01*
X85293142Y-96170761D01*
X93370476Y-95904095D02*
X93408571Y-95866000D01*
X93484761Y-95827904D01*
X93675238Y-95827904D01*
X93751428Y-95866000D01*
X93789523Y-95904095D01*
X93827619Y-95980285D01*
X93827619Y-96056476D01*
X93789523Y-96170761D01*
X93332380Y-96627904D01*
X93827619Y-96627904D01*
X94094285Y-95827904D02*
X94627619Y-95827904D01*
X94284761Y-96627904D01*
X102260476Y-95904095D02*
X102298571Y-95866000D01*
X102374761Y-95827904D01*
X102565238Y-95827904D01*
X102641428Y-95866000D01*
X102679523Y-95904095D01*
X102717619Y-95980285D01*
X102717619Y-96056476D01*
X102679523Y-96170761D01*
X102222380Y-96627904D01*
X102717619Y-96627904D01*
X103403333Y-95827904D02*
X103250952Y-95827904D01*
X103174761Y-95866000D01*
X103136666Y-95904095D01*
X103060476Y-96018380D01*
X103022380Y-96170761D01*
X103022380Y-96475523D01*
X103060476Y-96551714D01*
X103098571Y-96589809D01*
X103174761Y-96627904D01*
X103327142Y-96627904D01*
X103403333Y-96589809D01*
X103441428Y-96551714D01*
X103479523Y-96475523D01*
X103479523Y-96285047D01*
X103441428Y-96208857D01*
X103403333Y-96170761D01*
X103327142Y-96132666D01*
X103174761Y-96132666D01*
X103098571Y-96170761D01*
X103060476Y-96208857D01*
X103022380Y-96285047D01*
X124358476Y-113938095D02*
X124396571Y-113900000D01*
X124472761Y-113861904D01*
X124663238Y-113861904D01*
X124739428Y-113900000D01*
X124777523Y-113938095D01*
X124815619Y-114014285D01*
X124815619Y-114090476D01*
X124777523Y-114204761D01*
X124320380Y-114661904D01*
X124815619Y-114661904D01*
X125120380Y-113938095D02*
X125158476Y-113900000D01*
X125234666Y-113861904D01*
X125425142Y-113861904D01*
X125501333Y-113900000D01*
X125539428Y-113938095D01*
X125577523Y-114014285D01*
X125577523Y-114090476D01*
X125539428Y-114204761D01*
X125082285Y-114661904D01*
X125577523Y-114661904D01*
X111404476Y-102508095D02*
X111442571Y-102470000D01*
X111518761Y-102431904D01*
X111709238Y-102431904D01*
X111785428Y-102470000D01*
X111823523Y-102508095D01*
X111861619Y-102584285D01*
X111861619Y-102660476D01*
X111823523Y-102774761D01*
X111366380Y-103231904D01*
X111861619Y-103231904D01*
X112623523Y-103231904D02*
X112166380Y-103231904D01*
X112394952Y-103231904D02*
X112394952Y-102431904D01*
X112318761Y-102546190D01*
X112242571Y-102622380D01*
X112166380Y-102660476D01*
X113690476Y-102508095D02*
X113728571Y-102470000D01*
X113804761Y-102431904D01*
X113995238Y-102431904D01*
X114071428Y-102470000D01*
X114109523Y-102508095D01*
X114147619Y-102584285D01*
X114147619Y-102660476D01*
X114109523Y-102774761D01*
X113652380Y-103231904D01*
X114147619Y-103231904D01*
X114642857Y-102431904D02*
X114719047Y-102431904D01*
X114795238Y-102470000D01*
X114833333Y-102508095D01*
X114871428Y-102584285D01*
X114909523Y-102736666D01*
X114909523Y-102927142D01*
X114871428Y-103079523D01*
X114833333Y-103155714D01*
X114795238Y-103193809D01*
X114719047Y-103231904D01*
X114642857Y-103231904D01*
X114566666Y-103193809D01*
X114528571Y-103155714D01*
X114490476Y-103079523D01*
X114452380Y-102927142D01*
X114452380Y-102736666D01*
X114490476Y-102584285D01*
X114528571Y-102508095D01*
X114566666Y-102470000D01*
X114642857Y-102431904D01*
X116687619Y-103231904D02*
X116230476Y-103231904D01*
X116459047Y-103231904D02*
X116459047Y-102431904D01*
X116382857Y-102546190D01*
X116306666Y-102622380D01*
X116230476Y-102660476D01*
X117068571Y-103231904D02*
X117220952Y-103231904D01*
X117297142Y-103193809D01*
X117335238Y-103155714D01*
X117411428Y-103041428D01*
X117449523Y-102889047D01*
X117449523Y-102584285D01*
X117411428Y-102508095D01*
X117373333Y-102470000D01*
X117297142Y-102431904D01*
X117144761Y-102431904D01*
X117068571Y-102470000D01*
X117030476Y-102508095D01*
X116992380Y-102584285D01*
X116992380Y-102774761D01*
X117030476Y-102850952D01*
X117068571Y-102889047D01*
X117144761Y-102927142D01*
X117297142Y-102927142D01*
X117373333Y-102889047D01*
X117411428Y-102850952D01*
X117449523Y-102774761D01*
X119227619Y-103231904D02*
X118770476Y-103231904D01*
X118999047Y-103231904D02*
X118999047Y-102431904D01*
X118922857Y-102546190D01*
X118846666Y-102622380D01*
X118770476Y-102660476D01*
X119684761Y-102774761D02*
X119608571Y-102736666D01*
X119570476Y-102698571D01*
X119532380Y-102622380D01*
X119532380Y-102584285D01*
X119570476Y-102508095D01*
X119608571Y-102470000D01*
X119684761Y-102431904D01*
X119837142Y-102431904D01*
X119913333Y-102470000D01*
X119951428Y-102508095D01*
X119989523Y-102584285D01*
X119989523Y-102622380D01*
X119951428Y-102698571D01*
X119913333Y-102736666D01*
X119837142Y-102774761D01*
X119684761Y-102774761D01*
X119608571Y-102812857D01*
X119570476Y-102850952D01*
X119532380Y-102927142D01*
X119532380Y-103079523D01*
X119570476Y-103155714D01*
X119608571Y-103193809D01*
X119684761Y-103231904D01*
X119837142Y-103231904D01*
X119913333Y-103193809D01*
X119951428Y-103155714D01*
X119989523Y-103079523D01*
X119989523Y-102927142D01*
X119951428Y-102850952D01*
X119913333Y-102812857D01*
X119837142Y-102774761D01*
X124307619Y-106279904D02*
X123850476Y-106279904D01*
X124079047Y-106279904D02*
X124079047Y-105479904D01*
X124002857Y-105594190D01*
X123926666Y-105670380D01*
X123850476Y-105708476D01*
X124574285Y-105479904D02*
X125107619Y-105479904D01*
X124764761Y-106279904D01*
X126847619Y-106279904D02*
X126390476Y-106279904D01*
X126619047Y-106279904D02*
X126619047Y-105479904D01*
X126542857Y-105594190D01*
X126466666Y-105670380D01*
X126390476Y-105708476D01*
X127533333Y-105479904D02*
X127380952Y-105479904D01*
X127304761Y-105518000D01*
X127266666Y-105556095D01*
X127190476Y-105670380D01*
X127152380Y-105822761D01*
X127152380Y-106127523D01*
X127190476Y-106203714D01*
X127228571Y-106241809D01*
X127304761Y-106279904D01*
X127457142Y-106279904D01*
X127533333Y-106241809D01*
X127571428Y-106203714D01*
X127609523Y-106127523D01*
X127609523Y-105937047D01*
X127571428Y-105860857D01*
X127533333Y-105822761D01*
X127457142Y-105784666D01*
X127304761Y-105784666D01*
X127228571Y-105822761D01*
X127190476Y-105860857D01*
X127152380Y-105937047D01*
X93827619Y-129647904D02*
X93370476Y-129647904D01*
X93599047Y-129647904D02*
X93599047Y-128847904D01*
X93522857Y-128962190D01*
X93446666Y-129038380D01*
X93370476Y-129076476D01*
X94513333Y-129114571D02*
X94513333Y-129647904D01*
X94322857Y-128809809D02*
X94132380Y-129381238D01*
X94627619Y-129381238D01*
X111607619Y-138537904D02*
X111150476Y-138537904D01*
X111379047Y-138537904D02*
X111379047Y-137737904D01*
X111302857Y-137852190D01*
X111226666Y-137928380D01*
X111150476Y-137966476D01*
X111874285Y-137737904D02*
X112369523Y-137737904D01*
X112102857Y-138042666D01*
X112217142Y-138042666D01*
X112293333Y-138080761D01*
X112331428Y-138118857D01*
X112369523Y-138195047D01*
X112369523Y-138385523D01*
X112331428Y-138461714D01*
X112293333Y-138499809D01*
X112217142Y-138537904D01*
X111988571Y-138537904D01*
X111912380Y-138499809D01*
X111874285Y-138461714D01*
X102717619Y-138537904D02*
X102260476Y-138537904D01*
X102489047Y-138537904D02*
X102489047Y-137737904D01*
X102412857Y-137852190D01*
X102336666Y-137928380D01*
X102260476Y-137966476D01*
X103022380Y-137814095D02*
X103060476Y-137776000D01*
X103136666Y-137737904D01*
X103327142Y-137737904D01*
X103403333Y-137776000D01*
X103441428Y-137814095D01*
X103479523Y-137890285D01*
X103479523Y-137966476D01*
X103441428Y-138080761D01*
X102984285Y-138537904D01*
X103479523Y-138537904D01*
X107543619Y-129647904D02*
X107086476Y-129647904D01*
X107315047Y-129647904D02*
X107315047Y-128847904D01*
X107238857Y-128962190D01*
X107162666Y-129038380D01*
X107086476Y-129076476D01*
X108305523Y-129647904D02*
X107848380Y-129647904D01*
X108076952Y-129647904D02*
X108076952Y-128847904D01*
X108000761Y-128962190D01*
X107924571Y-129038380D01*
X107848380Y-129076476D01*
X105257619Y-129647904D02*
X104800476Y-129647904D01*
X105029047Y-129647904D02*
X105029047Y-128847904D01*
X104952857Y-128962190D01*
X104876666Y-129038380D01*
X104800476Y-129076476D01*
X105752857Y-128847904D02*
X105829047Y-128847904D01*
X105905238Y-128886000D01*
X105943333Y-128924095D01*
X105981428Y-129000285D01*
X106019523Y-129152666D01*
X106019523Y-129343142D01*
X105981428Y-129495523D01*
X105943333Y-129571714D01*
X105905238Y-129609809D01*
X105829047Y-129647904D01*
X105752857Y-129647904D01*
X105676666Y-129609809D01*
X105638571Y-129571714D01*
X105600476Y-129495523D01*
X105562380Y-129343142D01*
X105562380Y-129152666D01*
X105600476Y-129000285D01*
X105638571Y-128924095D01*
X105676666Y-128886000D01*
X105752857Y-128847904D01*
X91287619Y-138537904D02*
X91440000Y-138537904D01*
X91516190Y-138499809D01*
X91554285Y-138461714D01*
X91630476Y-138347428D01*
X91668571Y-138195047D01*
X91668571Y-137890285D01*
X91630476Y-137814095D01*
X91592380Y-137776000D01*
X91516190Y-137737904D01*
X91363809Y-137737904D01*
X91287619Y-137776000D01*
X91249523Y-137814095D01*
X91211428Y-137890285D01*
X91211428Y-138080761D01*
X91249523Y-138156952D01*
X91287619Y-138195047D01*
X91363809Y-138233142D01*
X91516190Y-138233142D01*
X91592380Y-138195047D01*
X91630476Y-138156952D01*
X91668571Y-138080761D01*
X88823809Y-138080761D02*
X88747619Y-138042666D01*
X88709523Y-138004571D01*
X88671428Y-137928380D01*
X88671428Y-137890285D01*
X88709523Y-137814095D01*
X88747619Y-137776000D01*
X88823809Y-137737904D01*
X88976190Y-137737904D01*
X89052380Y-137776000D01*
X89090476Y-137814095D01*
X89128571Y-137890285D01*
X89128571Y-137928380D01*
X89090476Y-138004571D01*
X89052380Y-138042666D01*
X88976190Y-138080761D01*
X88823809Y-138080761D01*
X88747619Y-138118857D01*
X88709523Y-138156952D01*
X88671428Y-138233142D01*
X88671428Y-138385523D01*
X88709523Y-138461714D01*
X88747619Y-138499809D01*
X88823809Y-138537904D01*
X88976190Y-138537904D01*
X89052380Y-138499809D01*
X89090476Y-138461714D01*
X89128571Y-138385523D01*
X89128571Y-138233142D01*
X89090476Y-138156952D01*
X89052380Y-138118857D01*
X88976190Y-138080761D01*
X79743333Y-137737904D02*
X80276666Y-137737904D01*
X79933809Y-138537904D01*
X77622380Y-137737904D02*
X77470000Y-137737904D01*
X77393809Y-137776000D01*
X77355714Y-137814095D01*
X77279523Y-137928380D01*
X77241428Y-138080761D01*
X77241428Y-138385523D01*
X77279523Y-138461714D01*
X77317619Y-138499809D01*
X77393809Y-138537904D01*
X77546190Y-138537904D01*
X77622380Y-138499809D01*
X77660476Y-138461714D01*
X77698571Y-138385523D01*
X77698571Y-138195047D01*
X77660476Y-138118857D01*
X77622380Y-138080761D01*
X77546190Y-138042666D01*
X77393809Y-138042666D01*
X77317619Y-138080761D01*
X77279523Y-138118857D01*
X77241428Y-138195047D01*
X82740476Y-128847904D02*
X82359523Y-128847904D01*
X82321428Y-129228857D01*
X82359523Y-129190761D01*
X82435714Y-129152666D01*
X82626190Y-129152666D01*
X82702380Y-129190761D01*
X82740476Y-129228857D01*
X82778571Y-129305047D01*
X82778571Y-129495523D01*
X82740476Y-129571714D01*
X82702380Y-129609809D01*
X82626190Y-129647904D01*
X82435714Y-129647904D01*
X82359523Y-129609809D01*
X82321428Y-129571714D01*
X80162380Y-129114571D02*
X80162380Y-129647904D01*
X79971904Y-128809809D02*
X79781428Y-129381238D01*
X80276666Y-129381238D01*
X77203333Y-128847904D02*
X77698571Y-128847904D01*
X77431904Y-129152666D01*
X77546190Y-129152666D01*
X77622380Y-129190761D01*
X77660476Y-129228857D01*
X77698571Y-129305047D01*
X77698571Y-129495523D01*
X77660476Y-129571714D01*
X77622380Y-129609809D01*
X77546190Y-129647904D01*
X77317619Y-129647904D01*
X77241428Y-129609809D01*
X77203333Y-129571714D01*
X74726828Y-128924095D02*
X74764923Y-128886000D01*
X74841114Y-128847904D01*
X75031590Y-128847904D01*
X75107780Y-128886000D01*
X75145876Y-128924095D01*
X75183971Y-129000285D01*
X75183971Y-129076476D01*
X75145876Y-129190761D01*
X74688733Y-129647904D01*
X75183971Y-129647904D01*
D11*
X70330380Y-104120190D02*
X70639904Y-104120190D01*
X70473238Y-104310666D01*
X70544666Y-104310666D01*
X70592285Y-104334476D01*
X70616095Y-104358285D01*
X70639904Y-104405904D01*
X70639904Y-104524952D01*
X70616095Y-104572571D01*
X70592285Y-104596380D01*
X70544666Y-104620190D01*
X70401809Y-104620190D01*
X70354190Y-104596380D01*
X70330380Y-104572571D01*
X70782761Y-104120190D02*
X70949428Y-104620190D01*
X71116095Y-104120190D01*
X71235142Y-104120190D02*
X71544666Y-104120190D01*
X71378000Y-104310666D01*
X71449428Y-104310666D01*
X71497047Y-104334476D01*
X71520857Y-104358285D01*
X71544666Y-104405904D01*
X71544666Y-104524952D01*
X71520857Y-104572571D01*
X71497047Y-104596380D01*
X71449428Y-104620190D01*
X71306571Y-104620190D01*
X71258952Y-104596380D01*
X71235142Y-104572571D01*
X71639904Y-104667809D02*
X72020857Y-104667809D01*
X72139904Y-104358285D02*
X72306571Y-104358285D01*
X72378000Y-104620190D02*
X72139904Y-104620190D01*
X72139904Y-104120190D01*
X72378000Y-104120190D01*
X72592285Y-104620190D02*
X72592285Y-104120190D01*
X72878000Y-104620190D01*
X72878000Y-104120190D01*
D12*
X126206476Y-130117809D02*
X126320761Y-130155904D01*
X126511238Y-130155904D01*
X126587428Y-130117809D01*
X126625523Y-130079714D01*
X126663619Y-130003523D01*
X126663619Y-129927333D01*
X126625523Y-129851142D01*
X126587428Y-129813047D01*
X126511238Y-129774952D01*
X126358857Y-129736857D01*
X126282666Y-129698761D01*
X126244571Y-129660666D01*
X126206476Y-129584476D01*
X126206476Y-129508285D01*
X126244571Y-129432095D01*
X126282666Y-129394000D01*
X126358857Y-129355904D01*
X126549333Y-129355904D01*
X126663619Y-129394000D01*
X126930285Y-129355904D02*
X127120761Y-130155904D01*
X127273142Y-129584476D01*
X127425523Y-130155904D01*
X127616000Y-129355904D01*
X128377904Y-130079714D02*
X128339809Y-130117809D01*
X128225523Y-130155904D01*
X128149333Y-130155904D01*
X128035047Y-130117809D01*
X127958857Y-130041619D01*
X127920761Y-129965428D01*
X127882666Y-129813047D01*
X127882666Y-129698761D01*
X127920761Y-129546380D01*
X127958857Y-129470190D01*
X128035047Y-129394000D01*
X128149333Y-129355904D01*
X128225523Y-129355904D01*
X128339809Y-129394000D01*
X128377904Y-129432095D01*
X129101714Y-130155904D02*
X128720761Y-130155904D01*
X128720761Y-129355904D01*
X129368380Y-130155904D02*
X129368380Y-129355904D01*
X129825523Y-130155904D02*
X129482666Y-129698761D01*
X129825523Y-129355904D02*
X129368380Y-129813047D01*
X126066761Y-124529809D02*
X126181047Y-124567904D01*
X126371523Y-124567904D01*
X126447714Y-124529809D01*
X126485809Y-124491714D01*
X126523904Y-124415523D01*
X126523904Y-124339333D01*
X126485809Y-124263142D01*
X126447714Y-124225047D01*
X126371523Y-124186952D01*
X126219142Y-124148857D01*
X126142952Y-124110761D01*
X126104857Y-124072666D01*
X126066761Y-123996476D01*
X126066761Y-123920285D01*
X126104857Y-123844095D01*
X126142952Y-123806000D01*
X126219142Y-123767904D01*
X126409619Y-123767904D01*
X126523904Y-123806000D01*
X126790571Y-123767904D02*
X126981047Y-124567904D01*
X127133428Y-123996476D01*
X127285809Y-124567904D01*
X127476285Y-123767904D01*
X127781047Y-124567904D02*
X127781047Y-123767904D01*
X127971523Y-123767904D01*
X128085809Y-123806000D01*
X128162000Y-123882190D01*
X128200095Y-123958380D01*
X128238190Y-124110761D01*
X128238190Y-124225047D01*
X128200095Y-124377428D01*
X128162000Y-124453619D01*
X128085809Y-124529809D01*
X127971523Y-124567904D01*
X127781047Y-124567904D01*
X128581047Y-124567904D02*
X128581047Y-123767904D01*
X129114380Y-123767904D02*
X129266761Y-123767904D01*
X129342952Y-123806000D01*
X129419142Y-123882190D01*
X129457238Y-124034571D01*
X129457238Y-124301238D01*
X129419142Y-124453619D01*
X129342952Y-124529809D01*
X129266761Y-124567904D01*
X129114380Y-124567904D01*
X129038190Y-124529809D01*
X128962000Y-124453619D01*
X128923904Y-124301238D01*
X128923904Y-124034571D01*
X128962000Y-123882190D01*
X129038190Y-123806000D01*
X129114380Y-123767904D01*
%TO.C,SW1*%
D15*
X128632857Y-101854000D02*
X128705428Y-101636285D01*
X128705428Y-101273428D01*
X128632857Y-101128285D01*
X128560285Y-101055714D01*
X128415142Y-100983142D01*
X128270000Y-100983142D01*
X128124857Y-101055714D01*
X128052285Y-101128285D01*
X127979714Y-101273428D01*
X127907142Y-101563714D01*
X127834571Y-101708857D01*
X127762000Y-101781428D01*
X127616857Y-101854000D01*
X127471714Y-101854000D01*
X127326571Y-101781428D01*
X127254000Y-101708857D01*
X127181428Y-101563714D01*
X127181428Y-101200857D01*
X127254000Y-100983142D01*
X127181428Y-100475142D02*
X128705428Y-100112285D01*
X127616857Y-99822000D01*
X128705428Y-99531714D01*
X127181428Y-99168857D01*
X128705428Y-97790000D02*
X128705428Y-98660857D01*
X128705428Y-98225428D02*
X127181428Y-98225428D01*
X127399142Y-98370571D01*
X127544285Y-98515714D01*
X127616857Y-98660857D01*
D11*
X127289809Y-104112190D02*
X127123142Y-103874095D01*
X127004095Y-104112190D02*
X127004095Y-103612190D01*
X127194571Y-103612190D01*
X127242190Y-103636000D01*
X127266000Y-103659809D01*
X127289809Y-103707428D01*
X127289809Y-103778857D01*
X127266000Y-103826476D01*
X127242190Y-103850285D01*
X127194571Y-103874095D01*
X127004095Y-103874095D01*
X127504095Y-103850285D02*
X127670761Y-103850285D01*
X127742190Y-104112190D02*
X127504095Y-104112190D01*
X127504095Y-103612190D01*
X127742190Y-103612190D01*
X127932666Y-104088380D02*
X128004095Y-104112190D01*
X128123142Y-104112190D01*
X128170761Y-104088380D01*
X128194571Y-104064571D01*
X128218380Y-104016952D01*
X128218380Y-103969333D01*
X128194571Y-103921714D01*
X128170761Y-103897904D01*
X128123142Y-103874095D01*
X128027904Y-103850285D01*
X127980285Y-103826476D01*
X127956476Y-103802666D01*
X127932666Y-103755047D01*
X127932666Y-103707428D01*
X127956476Y-103659809D01*
X127980285Y-103636000D01*
X128027904Y-103612190D01*
X128146952Y-103612190D01*
X128218380Y-103636000D01*
X128432666Y-103850285D02*
X128599333Y-103850285D01*
X128670761Y-104112190D02*
X128432666Y-104112190D01*
X128432666Y-103612190D01*
X128670761Y-103612190D01*
X128813619Y-103612190D02*
X129099333Y-103612190D01*
X128956476Y-104112190D02*
X128956476Y-103612190D01*
%TO.C,J1*%
D16*
X69958857Y-129738724D02*
X69958857Y-128737964D01*
X69958857Y-129214517D02*
X70539428Y-129214517D01*
X70539428Y-129738724D02*
X70539428Y-128737964D01*
X70974857Y-128833275D02*
X71023238Y-128785620D01*
X71120000Y-128737964D01*
X71361904Y-128737964D01*
X71458666Y-128785620D01*
X71507047Y-128833275D01*
X71555428Y-128928585D01*
X71555428Y-129023896D01*
X71507047Y-129166861D01*
X70926476Y-129738724D01*
X71555428Y-129738724D01*
X71894095Y-129738724D02*
X72426285Y-129071551D01*
X71894095Y-129071551D02*
X72426285Y-129738724D01*
X73248761Y-129071551D02*
X73248761Y-129738724D01*
X73006857Y-128690309D02*
X72764952Y-129405138D01*
X73393904Y-129405138D01*
D17*
%TO.C,J6*%
D16*
X84055857Y-138425524D02*
X84055857Y-137424764D01*
X84055857Y-137901317D02*
X84636428Y-137901317D01*
X84636428Y-138425524D02*
X84636428Y-137424764D01*
X85071857Y-137520075D02*
X85120238Y-137472420D01*
X85217000Y-137424764D01*
X85458904Y-137424764D01*
X85555666Y-137472420D01*
X85604047Y-137520075D01*
X85652428Y-137615385D01*
X85652428Y-137710696D01*
X85604047Y-137853661D01*
X85023476Y-138425524D01*
X85652428Y-138425524D01*
X85991095Y-138425524D02*
X86523285Y-137758351D01*
X85991095Y-137758351D02*
X86523285Y-138425524D01*
X86861952Y-137520075D02*
X86910333Y-137472420D01*
X87007095Y-137424764D01*
X87249000Y-137424764D01*
X87345761Y-137472420D01*
X87394142Y-137520075D01*
X87442523Y-137615385D01*
X87442523Y-137710696D01*
X87394142Y-137853661D01*
X86813571Y-138425524D01*
X87442523Y-138425524D01*
D17*
%TO.C,J2*%
D16*
X72625857Y-138450924D02*
X72625857Y-137450164D01*
X72625857Y-137926717D02*
X73206428Y-137926717D01*
X73206428Y-138450924D02*
X73206428Y-137450164D01*
X74125666Y-137783751D02*
X74125666Y-138450924D01*
X73883761Y-137402509D02*
X73641857Y-138117338D01*
X74270809Y-138117338D01*
X74561095Y-138450924D02*
X75093285Y-137783751D01*
X74561095Y-137783751D02*
X75093285Y-138450924D01*
X75431952Y-137545475D02*
X75480333Y-137497820D01*
X75577095Y-137450164D01*
X75819000Y-137450164D01*
X75915761Y-137497820D01*
X75964142Y-137545475D01*
X76012523Y-137640785D01*
X76012523Y-137736096D01*
X75964142Y-137879061D01*
X75383571Y-138450924D01*
X76012523Y-138450924D01*
D17*
%TO.C,J3*%
D16*
X100438857Y-129738724D02*
X100438857Y-128737964D01*
X100438857Y-129214517D02*
X101019428Y-129214517D01*
X101019428Y-129738724D02*
X101019428Y-128737964D01*
X101406476Y-128737964D02*
X102035428Y-128737964D01*
X101696761Y-129119206D01*
X101841904Y-129119206D01*
X101938666Y-129166861D01*
X101987047Y-129214517D01*
X102035428Y-129309827D01*
X102035428Y-129548103D01*
X101987047Y-129643414D01*
X101938666Y-129691069D01*
X101841904Y-129738724D01*
X101551619Y-129738724D01*
X101454857Y-129691069D01*
X101406476Y-129643414D01*
X102374095Y-129738724D02*
X102906285Y-129071551D01*
X102374095Y-129071551D02*
X102906285Y-129738724D01*
X103244952Y-128833275D02*
X103293333Y-128785620D01*
X103390095Y-128737964D01*
X103632000Y-128737964D01*
X103728761Y-128785620D01*
X103777142Y-128833275D01*
X103825523Y-128928585D01*
X103825523Y-129023896D01*
X103777142Y-129166861D01*
X103196571Y-129738724D01*
X103825523Y-129738724D01*
D17*
%TO.C,J4*%
D16*
X98152857Y-138374724D02*
X98152857Y-137373964D01*
X98152857Y-137850517D02*
X98733428Y-137850517D01*
X98733428Y-138374724D02*
X98733428Y-137373964D01*
X99652666Y-137707551D02*
X99652666Y-138374724D01*
X99410761Y-137326309D02*
X99168857Y-138041138D01*
X99797809Y-138041138D01*
X100088095Y-138374724D02*
X100620285Y-137707551D01*
X100088095Y-137707551D02*
X100620285Y-138374724D01*
X101539523Y-138374724D02*
X100958952Y-138374724D01*
X101249238Y-138374724D02*
X101249238Y-137373964D01*
X101152476Y-137516930D01*
X101055714Y-137612240D01*
X100958952Y-137659896D01*
D17*
%TO.C,J5*%
D16*
X107296857Y-138374724D02*
X107296857Y-137373964D01*
X107296857Y-137850517D02*
X107877428Y-137850517D01*
X107877428Y-138374724D02*
X107877428Y-137373964D01*
X108264476Y-137373964D02*
X108893428Y-137373964D01*
X108554761Y-137755206D01*
X108699904Y-137755206D01*
X108796666Y-137802861D01*
X108845047Y-137850517D01*
X108893428Y-137945827D01*
X108893428Y-138184103D01*
X108845047Y-138279414D01*
X108796666Y-138327069D01*
X108699904Y-138374724D01*
X108409619Y-138374724D01*
X108312857Y-138327069D01*
X108264476Y-138279414D01*
X109232095Y-138374724D02*
X109764285Y-137707551D01*
X109232095Y-137707551D02*
X109764285Y-138374724D01*
X110683523Y-138374724D02*
X110102952Y-138374724D01*
X110393238Y-138374724D02*
X110393238Y-137373964D01*
X110296476Y-137516930D01*
X110199714Y-137612240D01*
X110102952Y-137659896D01*
D17*
%TO.C,J7*%
D16*
X89135857Y-129738724D02*
X89135857Y-128737964D01*
X89135857Y-129214517D02*
X89716428Y-129214517D01*
X89716428Y-129738724D02*
X89716428Y-128737964D01*
X90151857Y-128833275D02*
X90200238Y-128785620D01*
X90297000Y-128737964D01*
X90538904Y-128737964D01*
X90635666Y-128785620D01*
X90684047Y-128833275D01*
X90732428Y-128928585D01*
X90732428Y-129023896D01*
X90684047Y-129166861D01*
X90103476Y-129738724D01*
X90732428Y-129738724D01*
X91071095Y-129738724D02*
X91603285Y-129071551D01*
X91071095Y-129071551D02*
X91603285Y-129738724D01*
X92522523Y-129738724D02*
X91941952Y-129738724D01*
X92232238Y-129738724D02*
X92232238Y-128737964D01*
X92135476Y-128880930D01*
X92038714Y-128976240D01*
X91941952Y-129023896D01*
D17*
%TO.C,J9*%
D16*
X126891142Y-127151069D02*
X127036285Y-127198724D01*
X127278190Y-127198724D01*
X127374952Y-127151069D01*
X127423333Y-127103414D01*
X127471714Y-127008103D01*
X127471714Y-126912793D01*
X127423333Y-126817482D01*
X127374952Y-126769827D01*
X127278190Y-126722172D01*
X127084666Y-126674517D01*
X126987904Y-126626861D01*
X126939523Y-126579206D01*
X126891142Y-126483896D01*
X126891142Y-126388585D01*
X126939523Y-126293275D01*
X126987904Y-126245620D01*
X127084666Y-126197964D01*
X127326571Y-126197964D01*
X127471714Y-126245620D01*
X127810380Y-126197964D02*
X128052285Y-127198724D01*
X128245809Y-126483896D01*
X128439333Y-127198724D01*
X128681238Y-126197964D01*
X129068285Y-127198724D02*
X129068285Y-126197964D01*
X129310190Y-126197964D01*
X129455333Y-126245620D01*
X129552095Y-126340930D01*
X129600476Y-126436240D01*
X129648857Y-126626861D01*
X129648857Y-126769827D01*
X129600476Y-126960448D01*
X129552095Y-127055759D01*
X129455333Y-127151069D01*
X129310190Y-127198724D01*
X129068285Y-127198724D01*
%TO.C,J14*%
X119488857Y-106370724D02*
X119488857Y-105369964D01*
X119488857Y-105846517D02*
X120069428Y-105846517D01*
X120069428Y-106370724D02*
X120069428Y-105369964D01*
X121085428Y-106370724D02*
X120504857Y-106370724D01*
X120795142Y-106370724D02*
X120795142Y-105369964D01*
X120698380Y-105512930D01*
X120601619Y-105608240D01*
X120504857Y-105655896D01*
X121424095Y-106370724D02*
X121956285Y-105703551D01*
X121424095Y-105703551D02*
X121956285Y-106370724D01*
X122294952Y-105465275D02*
X122343333Y-105417620D01*
X122440095Y-105369964D01*
X122682000Y-105369964D01*
X122778761Y-105417620D01*
X122827142Y-105465275D01*
X122875523Y-105560585D01*
X122875523Y-105655896D01*
X122827142Y-105798861D01*
X122246571Y-106370724D01*
X122875523Y-106370724D01*
D17*
%TO.C,J15*%
D16*
X81993619Y-104338724D02*
X81993619Y-103337964D01*
X81993619Y-103814517D02*
X82574190Y-103814517D01*
X82574190Y-104338724D02*
X82574190Y-103337964D01*
X82961238Y-103337964D02*
X83590190Y-103337964D01*
X83251523Y-103719206D01*
X83396666Y-103719206D01*
X83493428Y-103766861D01*
X83541809Y-103814517D01*
X83590190Y-103909827D01*
X83590190Y-104148103D01*
X83541809Y-104243414D01*
X83493428Y-104291069D01*
X83396666Y-104338724D01*
X83106380Y-104338724D01*
X83009619Y-104291069D01*
X82961238Y-104243414D01*
X83783714Y-104434035D02*
X84557809Y-104434035D01*
X84751333Y-104052793D02*
X85235142Y-104052793D01*
X84654571Y-104338724D02*
X84993238Y-103337964D01*
X85331904Y-104338724D01*
X85670571Y-104338724D02*
X85670571Y-103337964D01*
X85912476Y-103337964D01*
X86057619Y-103385620D01*
X86154380Y-103480930D01*
X86202761Y-103576240D01*
X86251142Y-103766861D01*
X86251142Y-103909827D01*
X86202761Y-104100448D01*
X86154380Y-104195759D01*
X86057619Y-104291069D01*
X85912476Y-104338724D01*
X85670571Y-104338724D01*
X87267142Y-104243414D02*
X87218761Y-104291069D01*
X87073619Y-104338724D01*
X86976857Y-104338724D01*
X86831714Y-104291069D01*
X86734952Y-104195759D01*
X86686571Y-104100448D01*
X86638190Y-103909827D01*
X86638190Y-103766861D01*
X86686571Y-103576240D01*
X86734952Y-103480930D01*
X86831714Y-103385620D01*
X86976857Y-103337964D01*
X87073619Y-103337964D01*
X87218761Y-103385620D01*
X87267142Y-103433275D01*
X87654190Y-103433275D02*
X87702571Y-103385620D01*
X87799333Y-103337964D01*
X88041238Y-103337964D01*
X88138000Y-103385620D01*
X88186380Y-103433275D01*
X88234761Y-103528585D01*
X88234761Y-103623896D01*
X88186380Y-103766861D01*
X87605809Y-104338724D01*
X88234761Y-104338724D01*
D17*
%TO.C,J16*%
D16*
X90883619Y-104338724D02*
X90883619Y-103337964D01*
X90883619Y-103814517D02*
X91464190Y-103814517D01*
X91464190Y-104338724D02*
X91464190Y-103337964D01*
X91899619Y-103433275D02*
X91948000Y-103385620D01*
X92044761Y-103337964D01*
X92286666Y-103337964D01*
X92383428Y-103385620D01*
X92431809Y-103433275D01*
X92480190Y-103528585D01*
X92480190Y-103623896D01*
X92431809Y-103766861D01*
X91851238Y-104338724D01*
X92480190Y-104338724D01*
X92673714Y-104434035D02*
X93447809Y-104434035D01*
X93641333Y-104052793D02*
X94125142Y-104052793D01*
X93544571Y-104338724D02*
X93883238Y-103337964D01*
X94221904Y-104338724D01*
X94560571Y-104338724D02*
X94560571Y-103337964D01*
X94802476Y-103337964D01*
X94947619Y-103385620D01*
X95044380Y-103480930D01*
X95092761Y-103576240D01*
X95141142Y-103766861D01*
X95141142Y-103909827D01*
X95092761Y-104100448D01*
X95044380Y-104195759D01*
X94947619Y-104291069D01*
X94802476Y-104338724D01*
X94560571Y-104338724D01*
X96157142Y-104243414D02*
X96108761Y-104291069D01*
X95963619Y-104338724D01*
X95866857Y-104338724D01*
X95721714Y-104291069D01*
X95624952Y-104195759D01*
X95576571Y-104100448D01*
X95528190Y-103909827D01*
X95528190Y-103766861D01*
X95576571Y-103576240D01*
X95624952Y-103480930D01*
X95721714Y-103385620D01*
X95866857Y-103337964D01*
X95963619Y-103337964D01*
X96108761Y-103385620D01*
X96157142Y-103433275D01*
X97124761Y-104338724D02*
X96544190Y-104338724D01*
X96834476Y-104338724D02*
X96834476Y-103337964D01*
X96737714Y-103480930D01*
X96640952Y-103576240D01*
X96544190Y-103623896D01*
D17*
%TO.C,J17*%
D16*
X119488857Y-114752724D02*
X119488857Y-113751964D01*
X119488857Y-114228517D02*
X120069428Y-114228517D01*
X120069428Y-114752724D02*
X120069428Y-113751964D01*
X121085428Y-114752724D02*
X120504857Y-114752724D01*
X120795142Y-114752724D02*
X120795142Y-113751964D01*
X120698380Y-113894930D01*
X120601619Y-113990240D01*
X120504857Y-114037896D01*
X121424095Y-114752724D02*
X121956285Y-114085551D01*
X121424095Y-114085551D02*
X121956285Y-114752724D01*
X122875523Y-114752724D02*
X122294952Y-114752724D01*
X122585238Y-114752724D02*
X122585238Y-113751964D01*
X122488476Y-113894930D01*
X122391714Y-113990240D01*
X122294952Y-114037896D01*
D17*
%TO.C,J18*%
D16*
X99773619Y-104338724D02*
X99773619Y-103337964D01*
X99773619Y-103814517D02*
X100354190Y-103814517D01*
X100354190Y-104338724D02*
X100354190Y-103337964D01*
X101370190Y-104338724D02*
X100789619Y-104338724D01*
X101079904Y-104338724D02*
X101079904Y-103337964D01*
X100983142Y-103480930D01*
X100886380Y-103576240D01*
X100789619Y-103623896D01*
X101563714Y-104434035D02*
X102337809Y-104434035D01*
X102531333Y-104052793D02*
X103015142Y-104052793D01*
X102434571Y-104338724D02*
X102773238Y-103337964D01*
X103111904Y-104338724D01*
X103450571Y-104338724D02*
X103450571Y-103337964D01*
X103692476Y-103337964D01*
X103837619Y-103385620D01*
X103934380Y-103480930D01*
X103982761Y-103576240D01*
X104031142Y-103766861D01*
X104031142Y-103909827D01*
X103982761Y-104100448D01*
X103934380Y-104195759D01*
X103837619Y-104291069D01*
X103692476Y-104338724D01*
X103450571Y-104338724D01*
X105047142Y-104243414D02*
X104998761Y-104291069D01*
X104853619Y-104338724D01*
X104756857Y-104338724D01*
X104611714Y-104291069D01*
X104514952Y-104195759D01*
X104466571Y-104100448D01*
X104418190Y-103909827D01*
X104418190Y-103766861D01*
X104466571Y-103576240D01*
X104514952Y-103480930D01*
X104611714Y-103385620D01*
X104756857Y-103337964D01*
X104853619Y-103337964D01*
X104998761Y-103385620D01*
X105047142Y-103433275D01*
X105676095Y-103337964D02*
X105772857Y-103337964D01*
X105869619Y-103385620D01*
X105918000Y-103433275D01*
X105966380Y-103528585D01*
X106014761Y-103719206D01*
X106014761Y-103957482D01*
X105966380Y-104148103D01*
X105918000Y-104243414D01*
X105869619Y-104291069D01*
X105772857Y-104338724D01*
X105676095Y-104338724D01*
X105579333Y-104291069D01*
X105530952Y-104243414D01*
X105482571Y-104148103D01*
X105434190Y-103957482D01*
X105434190Y-103719206D01*
X105482571Y-103528585D01*
X105530952Y-103433275D01*
X105579333Y-103385620D01*
X105676095Y-103337964D01*
D17*
%TO.C,J19*%
D16*
X107550857Y-103322724D02*
X107550857Y-102321964D01*
X107550857Y-102798517D02*
X108131428Y-102798517D01*
X108131428Y-103322724D02*
X108131428Y-102321964D01*
X109147428Y-103322724D02*
X108566857Y-103322724D01*
X108857142Y-103322724D02*
X108857142Y-102321964D01*
X108760380Y-102464930D01*
X108663619Y-102560240D01*
X108566857Y-102607896D01*
X109486095Y-103322724D02*
X110018285Y-102655551D01*
X109486095Y-102655551D02*
X110018285Y-103322724D01*
X110840761Y-102655551D02*
X110840761Y-103322724D01*
X110598857Y-102274309D02*
X110356952Y-102989138D01*
X110985904Y-102989138D01*
D17*
%TO.C,J20*%
D12*
X72049840Y-93522063D02*
X72764126Y-93522063D01*
X72906983Y-93569682D01*
X73002221Y-93664920D01*
X73049840Y-93807778D01*
X73049840Y-93903016D01*
X72145079Y-93093492D02*
X72097460Y-93045873D01*
X72049840Y-92950635D01*
X72049840Y-92712540D01*
X72097460Y-92617301D01*
X72145079Y-92569682D01*
X72240317Y-92522063D01*
X72335555Y-92522063D01*
X72478412Y-92569682D01*
X73049840Y-93141111D01*
X73049840Y-92522063D01*
X72049840Y-91903016D02*
X72049840Y-91807778D01*
X72097460Y-91712540D01*
X72145079Y-91664920D01*
X72240317Y-91617301D01*
X72430793Y-91569682D01*
X72668888Y-91569682D01*
X72859364Y-91617301D01*
X72954602Y-91664920D01*
X73002221Y-91712540D01*
X73049840Y-91807778D01*
X73049840Y-91903016D01*
X73002221Y-91998254D01*
X72954602Y-92045873D01*
X72859364Y-92093492D01*
X72668888Y-92141111D01*
X72430793Y-92141111D01*
X72240317Y-92093492D01*
X72145079Y-92045873D01*
X72097460Y-91998254D01*
X72049840Y-91903016D01*
%TO.C,C1*%
X125817333Y-138279142D02*
X125769714Y-138326761D01*
X125626857Y-138374380D01*
X125531619Y-138374380D01*
X125388761Y-138326761D01*
X125293523Y-138231523D01*
X125245904Y-138136285D01*
X125198285Y-137945809D01*
X125198285Y-137802952D01*
X125245904Y-137612476D01*
X125293523Y-137517238D01*
X125388761Y-137422000D01*
X125531619Y-137374380D01*
X125626857Y-137374380D01*
X125769714Y-137422000D01*
X125817333Y-137469619D01*
X126769714Y-138374380D02*
X126198285Y-138374380D01*
X126484000Y-138374380D02*
X126484000Y-137374380D01*
X126388761Y-137517238D01*
X126293523Y-137612476D01*
X126198285Y-137660095D01*
%TD*%
M02*
