M48
; DRILL file {KiCad 5.1.7-a382d34a8~87~ubuntu20.04.1} date Wed Apr 14 12:00:45 2021
; FORMAT={-:-/ absolute / inch / decimal}
; #@! TF.CreationDate,2021-04-14T12:00:45+02:00
; #@! TF.GenerationSoftware,Kicad,Pcbnew,5.1.7-a382d34a8~87~ubuntu20.04.1
; #@! TF.FileFunction,Plated,1,2,PTH
FMAT,2
INCH
T1C0.0157
T2C0.0315
T3C0.0320
T4C0.0354
T5C0.0402
%
G90
G05
T1
X3.081Y-3.802
X3.42Y-3.79
X3.42Y-5.43
X3.42Y-5.51
X3.67Y-5.34
X3.815Y-5.435
X3.878Y-3.95
X3.899Y-4.344
X3.9Y-4.45
X4.23Y-5.35
X4.311Y-5.52
X4.427Y-4.5513
X4.5Y-4.6
X4.5363Y-5.33
X4.57Y-4.38
X4.63Y-5.6
X4.769Y-4.153
X4.966Y-3.977
X5.139Y-4.506
T2
X2.9499Y-3.6001
X2.9499Y-3.7001
X3.0499Y-3.6001
X3.0499Y-3.7001
X3.1499Y-3.6001
X3.1499Y-3.7001
X3.2499Y-3.6001
X3.2499Y-3.7001
X3.3499Y-3.6001
X3.3499Y-3.7001
X3.4499Y-3.6001
X3.4499Y-3.7001
X3.5499Y-3.6001
X3.5499Y-3.7001
X3.6499Y-3.6001
X3.6499Y-3.7001
X3.7499Y-3.6001
X3.7499Y-3.7001
X3.8499Y-3.6001
X3.8499Y-3.7001
X3.9499Y-3.6001
X3.9499Y-3.7001
X4.0499Y-3.6001
X4.0499Y-3.7001
X4.1499Y-3.6001
X4.1499Y-3.7001
X4.2499Y-3.6001
X4.2499Y-3.7001
X4.3499Y-3.6001
X4.3499Y-3.7001
X4.4499Y-3.6001
X4.4499Y-3.7001
X4.5499Y-3.6001
X4.5499Y-3.7001
X4.6499Y-3.6001
X4.6499Y-3.7001
X4.7499Y-3.6001
X4.7499Y-3.7001
X4.8499Y-3.6001
X4.8499Y-3.7001
T3
X2.95Y-5.6
X3.05Y-5.6
X3.15Y-5.6
X3.25Y-5.6
X3.4Y-5.6
X3.5Y-5.6
X3.6Y-5.6
X3.7Y-5.6
X3.8Y-5.6
X4.3Y-3.91
X4.4Y-3.91
X4.5Y-3.91
X4.6Y-3.91
X4.7Y-3.91
X4.8Y-3.91
X3.95Y-3.95
X4.05Y-3.95
X4.15Y-3.95
X3.6Y-3.95
X3.7Y-3.95
X3.8Y-3.95
X4.8Y-4.34
X4.9Y-4.34
X5.0Y-4.34
X5.1Y-4.34
X4.05Y-5.25
X4.15Y-5.25
X4.25Y-5.25
X4.35Y-5.25
X3.25Y-3.95
X3.35Y-3.95
X3.45Y-3.95
X4.3Y-5.6
X4.4Y-5.6
X4.5Y-5.6
X2.75Y-3.86
X2.75Y-3.96
X3.6Y-5.25
X3.7Y-5.25
X3.8Y-5.25
X3.9Y-5.25
X3.95Y-5.6
X4.05Y-5.6
X4.15Y-5.6
X2.85Y-5.25
X2.95Y-5.25
X3.05Y-5.25
X3.15Y-5.25
X3.25Y-5.25
X3.345Y-5.25
X3.45Y-5.25
X4.95Y-3.8
X4.95Y-4.06
X5.13Y-3.8
X5.13Y-4.06
X4.82Y-4.67
X4.92Y-4.67
X5.02Y-4.67
X4.81Y-4.89
X4.81Y-4.99
X4.81Y-5.09
X3.0Y-3.86
X3.0Y-3.96
T4
X2.7Y-5.25
X2.7Y-5.35
X2.93Y-4.08
X3.14Y-4.08
T5
X2.7Y-4.25
X2.7Y-4.95
X2.8Y-4.25
X2.8Y-4.95
X2.9Y-4.25
X2.9Y-4.95
X3.0Y-4.25
X3.0Y-4.95
X3.1Y-4.25
X3.1Y-4.95
X3.2Y-4.25
X3.2Y-4.95
X3.3Y-4.25
X3.3Y-4.95
X3.4Y-4.25
X3.4Y-4.95
X3.5Y-4.25
X3.5Y-4.95
X3.6Y-4.25
X3.6Y-4.95
X3.7Y-4.25
X3.7Y-4.95
X3.8Y-4.25
X3.8Y-4.95
X3.9Y-4.25
X3.9Y-4.95
X4.0Y-4.25
X4.0Y-4.95
X4.1Y-4.25
X4.1Y-4.95
X4.2Y-4.25
X4.2Y-4.95
X4.3Y-4.25
X4.3Y-4.95
X4.4Y-4.25
X4.4Y-4.95
X4.5Y-4.25
X4.5Y-4.95
X4.5909Y-4.5
X4.5909Y-4.6
X4.5909Y-4.7
X4.6Y-4.25
X4.6Y-4.95
T0
M30
