%TF.GenerationSoftware,KiCad,Pcbnew,5.1.7-a382d34a8~87~ubuntu20.04.1*%
%TF.CreationDate,2021-04-14T12:00:42+02:00*%
%TF.ProjectId,pico_on_raspi,7069636f-5f6f-46e5-9f72-617370692e6b,rev?*%
%TF.SameCoordinates,Original*%
%TF.FileFunction,Soldermask,Bot*%
%TF.FilePolarity,Negative*%
%FSLAX46Y46*%
G04 Gerber Fmt 4.6, Leading zero omitted, Abs format (unit mm)*
G04 Created by KiCad (PCBNEW 5.1.7-a382d34a8~87~ubuntu20.04.1) date 2021-04-14 12:00:42*
%MOMM*%
%LPD*%
G01*
G04 APERTURE LIST*
%ADD10O,1.700000X1.700000*%
%ADD11R,1.700000X1.700000*%
%ADD12C,1.998980*%
%ADD13R,1.300000X1.500000*%
%ADD14C,0.100000*%
%ADD15R,1.500000X1.300000*%
%ADD16O,1.500000X1.998980*%
%ADD17R,1.500000X1.998980*%
%ADD18O,1.998980X1.500000*%
%ADD19R,1.998980X1.500000*%
%ADD20C,2.700000*%
%ADD21C,1.990000*%
%ADD22R,1.998980X1.998980*%
G04 APERTURE END LIST*
D10*
%TO.C,U1*%
X68580000Y-125730000D03*
X71120000Y-125730000D03*
D11*
X73660000Y-125730000D03*
D10*
X76200000Y-125730000D03*
X78740000Y-125730000D03*
X81280000Y-125730000D03*
X83820000Y-125730000D03*
D11*
X86360000Y-125730000D03*
D10*
X88900000Y-125730000D03*
X91440000Y-125730000D03*
X93980000Y-125730000D03*
X96520000Y-125730000D03*
D11*
X99060000Y-125730000D03*
D10*
X101600000Y-125730000D03*
X104140000Y-125730000D03*
X106680000Y-125730000D03*
X109220000Y-125730000D03*
D11*
X111760000Y-125730000D03*
D10*
X114300000Y-125730000D03*
X116840000Y-125730000D03*
X116840000Y-107950000D03*
X114300000Y-107950000D03*
D11*
X111760000Y-107950000D03*
D10*
X109220000Y-107950000D03*
X106680000Y-107950000D03*
X104140000Y-107950000D03*
X101600000Y-107950000D03*
D11*
X99060000Y-107950000D03*
D10*
X96520000Y-107950000D03*
X93980000Y-107950000D03*
X91440000Y-107950000D03*
X88900000Y-107950000D03*
D11*
X86360000Y-107950000D03*
D10*
X83820000Y-107950000D03*
X81280000Y-107950000D03*
X78740000Y-107950000D03*
X76200000Y-107950000D03*
D11*
X73660000Y-107950000D03*
D10*
X71120000Y-107950000D03*
X68580000Y-107950000D03*
X116610000Y-119380000D03*
D11*
X116610000Y-116840000D03*
D10*
X116610000Y-114300000D03*
%TD*%
D12*
%TO.C,SW1*%
X130302000Y-96520000D03*
X125730000Y-96520000D03*
X125730000Y-103124000D03*
X130302000Y-103124000D03*
%TD*%
D13*
%TO.C,R57*%
X122428000Y-104220000D03*
X122428000Y-101520000D03*
%TD*%
D14*
%TO.C,R51*%
G36*
X118526000Y-103074000D02*
G01*
X119888000Y-103074000D01*
X119897755Y-103074961D01*
X119907134Y-103077806D01*
X119915779Y-103082427D01*
X119923355Y-103088645D01*
X119929573Y-103096221D01*
X119934194Y-103104866D01*
X119937039Y-103114245D01*
X119938000Y-103124000D01*
X119938000Y-103632000D01*
X119937039Y-103641755D01*
X119934194Y-103651134D01*
X119929573Y-103659779D01*
X119923355Y-103667355D01*
X119915779Y-103673573D01*
X119907134Y-103678194D01*
X119897755Y-103681039D01*
X119888000Y-103682000D01*
X118526000Y-103682000D01*
X118526000Y-104028000D01*
X117026000Y-104028000D01*
X117026000Y-102728000D01*
X118526000Y-102728000D01*
X118526000Y-103074000D01*
G37*
D15*
X120476000Y-103378000D03*
%TD*%
D13*
%TO.C,R38*%
X114300000Y-113030000D03*
X114300000Y-110330000D03*
%TD*%
D14*
%TO.C,R31*%
G36*
X94650000Y-130506000D02*
G01*
X96012000Y-130506000D01*
X96021755Y-130506961D01*
X96031134Y-130509806D01*
X96039779Y-130514427D01*
X96047355Y-130520645D01*
X96053573Y-130528221D01*
X96058194Y-130536866D01*
X96061039Y-130546245D01*
X96062000Y-130556000D01*
X96062000Y-131064000D01*
X96061039Y-131073755D01*
X96058194Y-131083134D01*
X96053573Y-131091779D01*
X96047355Y-131099355D01*
X96039779Y-131105573D01*
X96031134Y-131110194D01*
X96021755Y-131113039D01*
X96012000Y-131114000D01*
X94650000Y-131114000D01*
X94650000Y-131460000D01*
X93150000Y-131460000D01*
X93150000Y-130160000D01*
X94650000Y-130160000D01*
X94650000Y-130506000D01*
G37*
D15*
X96600000Y-130810000D03*
%TD*%
D16*
%TO.C,J1*%
X82550000Y-133350000D03*
X80010000Y-133350000D03*
X77470000Y-133350000D03*
X74930000Y-133350000D03*
D17*
X72390000Y-133350000D03*
D16*
X87630000Y-133350000D03*
X84963000Y-133350000D03*
%TD*%
%TO.C,J6*%
X96520000Y-142240000D03*
X93980000Y-142240000D03*
X91440000Y-142240000D03*
X88900000Y-142240000D03*
D17*
X86360000Y-142240000D03*
%TD*%
D18*
%TO.C,J13*%
X76200000Y-100584000D03*
D19*
X76200000Y-98044000D03*
%TD*%
D15*
%TO.C,C2*%
X74930000Y-110490000D03*
X77630000Y-110490000D03*
%TD*%
D20*
%TO.C,H1*%
X70020460Y-92676540D03*
%TD*%
%TO.C,H2*%
X128013460Y-92712540D03*
%TD*%
%TO.C,H3*%
X70020460Y-141676540D03*
%TD*%
%TO.C,H4*%
X128020460Y-141676540D03*
%TD*%
D16*
%TO.C,J2*%
X82550000Y-142240000D03*
X80010000Y-142240000D03*
X77470000Y-142240000D03*
D17*
X74930000Y-142240000D03*
%TD*%
D16*
%TO.C,J3*%
X110490000Y-133350000D03*
X107950000Y-133350000D03*
X105410000Y-133350000D03*
D17*
X102870000Y-133350000D03*
%TD*%
D16*
%TO.C,J4*%
X105410000Y-142240000D03*
X102870000Y-142240000D03*
D17*
X100330000Y-142240000D03*
%TD*%
D16*
%TO.C,J5*%
X114300000Y-142240000D03*
X111760000Y-142240000D03*
D17*
X109220000Y-142240000D03*
%TD*%
D16*
%TO.C,J7*%
X99060000Y-133350000D03*
X96520000Y-133350000D03*
X93980000Y-133350000D03*
D17*
X91440000Y-133350000D03*
%TD*%
D12*
%TO.C,J8*%
X68580000Y-135890000D03*
X68580000Y-133350000D03*
%TD*%
D18*
%TO.C,J9*%
X122174000Y-129286000D03*
X122174000Y-126746000D03*
D19*
X122174000Y-124206000D03*
%TD*%
D16*
%TO.C,J14*%
X129540000Y-110236000D03*
X127000000Y-110236000D03*
X124460000Y-110236000D03*
D17*
X121920000Y-110236000D03*
%TD*%
D16*
%TO.C,J15*%
X87630000Y-100330000D03*
X85090000Y-100330000D03*
D17*
X82550000Y-100330000D03*
%TD*%
D16*
%TO.C,J16*%
X96520000Y-100330000D03*
X93980000Y-100330000D03*
D17*
X91440000Y-100330000D03*
%TD*%
D16*
%TO.C,J17*%
X127508000Y-118618000D03*
X124968000Y-118618000D03*
D17*
X122428000Y-118618000D03*
%TD*%
D16*
%TO.C,J18*%
X105410000Y-100330000D03*
X102870000Y-100330000D03*
D17*
X100330000Y-100330000D03*
%TD*%
D16*
%TO.C,J19*%
X121920000Y-99314000D03*
X119380000Y-99314000D03*
X116840000Y-99314000D03*
X114300000Y-99314000D03*
X111760000Y-99314000D03*
D17*
X109220000Y-99314000D03*
%TD*%
D21*
%TO.C,J20*%
X123187460Y-91442540D03*
X123187460Y-93982540D03*
X120647460Y-91442540D03*
X120647460Y-93982540D03*
X118107460Y-91442540D03*
X118107460Y-93982540D03*
X115567460Y-91442540D03*
X115567460Y-93982540D03*
X113027460Y-91442540D03*
X113027460Y-93982540D03*
X110487460Y-91442540D03*
X110487460Y-93982540D03*
X107947460Y-91442540D03*
X107947460Y-93982540D03*
X105407460Y-91442540D03*
X105407460Y-93982540D03*
X102867460Y-91442540D03*
X102867460Y-93982540D03*
X100327460Y-91442540D03*
X100327460Y-93982540D03*
X97787460Y-91442540D03*
X97787460Y-93982540D03*
X95247460Y-91442540D03*
X95247460Y-93982540D03*
X92707460Y-91442540D03*
X92707460Y-93982540D03*
X90167460Y-91442540D03*
X90167460Y-93982540D03*
X87627460Y-91442540D03*
X87627460Y-93982540D03*
X85087460Y-91442540D03*
X85087460Y-93982540D03*
X82547460Y-91442540D03*
X82547460Y-93982540D03*
X80007460Y-91442540D03*
X80007460Y-93982540D03*
X77467460Y-91442540D03*
X77467460Y-93982540D03*
X74927460Y-91442540D03*
X74927460Y-93982540D03*
%TD*%
D14*
%TO.C,R1*%
G36*
X83992000Y-140512000D02*
G01*
X82630000Y-140512000D01*
X82620245Y-140511039D01*
X82610866Y-140508194D01*
X82602221Y-140503573D01*
X82594645Y-140497355D01*
X82588427Y-140489779D01*
X82583806Y-140481134D01*
X82580961Y-140471755D01*
X82580000Y-140462000D01*
X82580000Y-139954000D01*
X82580961Y-139944245D01*
X82583806Y-139934866D01*
X82588427Y-139926221D01*
X82594645Y-139918645D01*
X82602221Y-139912427D01*
X82610866Y-139907806D01*
X82620245Y-139904961D01*
X82630000Y-139904000D01*
X83992000Y-139904000D01*
X83992000Y-139558000D01*
X85492000Y-139558000D01*
X85492000Y-140858000D01*
X83992000Y-140858000D01*
X83992000Y-140512000D01*
G37*
D15*
X82042000Y-140208000D03*
%TD*%
%TO.C,R2*%
X82042000Y-138430000D03*
X84742000Y-138430000D03*
%TD*%
D14*
%TO.C,R3*%
G36*
X109678000Y-137506000D02*
G01*
X109678000Y-136144000D01*
X109678961Y-136134245D01*
X109681806Y-136124866D01*
X109686427Y-136116221D01*
X109692645Y-136108645D01*
X109700221Y-136102427D01*
X109708866Y-136097806D01*
X109718245Y-136094961D01*
X109728000Y-136094000D01*
X110236000Y-136094000D01*
X110245755Y-136094961D01*
X110255134Y-136097806D01*
X110263779Y-136102427D01*
X110271355Y-136108645D01*
X110277573Y-136116221D01*
X110282194Y-136124866D01*
X110285039Y-136134245D01*
X110286000Y-136144000D01*
X110286000Y-137506000D01*
X110632000Y-137506000D01*
X110632000Y-139006000D01*
X109332000Y-139006000D01*
X109332000Y-137506000D01*
X109678000Y-137506000D01*
G37*
D13*
X109982000Y-135556000D03*
%TD*%
D15*
%TO.C,R4*%
X112522000Y-133350000D03*
X115222000Y-133350000D03*
%TD*%
D14*
%TO.C,R5*%
G36*
X107200000Y-140004000D02*
G01*
X105838000Y-140004000D01*
X105828245Y-140003039D01*
X105818866Y-140000194D01*
X105810221Y-139995573D01*
X105802645Y-139989355D01*
X105796427Y-139981779D01*
X105791806Y-139973134D01*
X105788961Y-139963755D01*
X105788000Y-139954000D01*
X105788000Y-139446000D01*
X105788961Y-139436245D01*
X105791806Y-139426866D01*
X105796427Y-139418221D01*
X105802645Y-139410645D01*
X105810221Y-139404427D01*
X105818866Y-139399806D01*
X105828245Y-139396961D01*
X105838000Y-139396000D01*
X107200000Y-139396000D01*
X107200000Y-139050000D01*
X108700000Y-139050000D01*
X108700000Y-140350000D01*
X107200000Y-140350000D01*
X107200000Y-140004000D01*
G37*
D15*
X105250000Y-139700000D03*
%TD*%
%TO.C,R6*%
X105410000Y-137160000D03*
X108110000Y-137160000D03*
%TD*%
D14*
%TO.C,R7*%
G36*
X116250000Y-140004000D02*
G01*
X114888000Y-140004000D01*
X114878245Y-140003039D01*
X114868866Y-140000194D01*
X114860221Y-139995573D01*
X114852645Y-139989355D01*
X114846427Y-139981779D01*
X114841806Y-139973134D01*
X114838961Y-139963755D01*
X114838000Y-139954000D01*
X114838000Y-139446000D01*
X114838961Y-139436245D01*
X114841806Y-139426866D01*
X114846427Y-139418221D01*
X114852645Y-139410645D01*
X114860221Y-139404427D01*
X114868866Y-139399806D01*
X114878245Y-139396961D01*
X114888000Y-139396000D01*
X116250000Y-139396000D01*
X116250000Y-139050000D01*
X117750000Y-139050000D01*
X117750000Y-140350000D01*
X116250000Y-140350000D01*
X116250000Y-140004000D01*
G37*
D15*
X114300000Y-139700000D03*
%TD*%
%TO.C,R8*%
X114300000Y-137160000D03*
X117000000Y-137160000D03*
%TD*%
D14*
%TO.C,R9*%
G36*
X74626000Y-130220000D02*
G01*
X74626000Y-128858000D01*
X74626961Y-128848245D01*
X74629806Y-128838866D01*
X74634427Y-128830221D01*
X74640645Y-128822645D01*
X74648221Y-128816427D01*
X74656866Y-128811806D01*
X74666245Y-128808961D01*
X74676000Y-128808000D01*
X75184000Y-128808000D01*
X75193755Y-128808961D01*
X75203134Y-128811806D01*
X75211779Y-128816427D01*
X75219355Y-128822645D01*
X75225573Y-128830221D01*
X75230194Y-128838866D01*
X75233039Y-128848245D01*
X75234000Y-128858000D01*
X75234000Y-130220000D01*
X75580000Y-130220000D01*
X75580000Y-131720000D01*
X74280000Y-131720000D01*
X74280000Y-130220000D01*
X74626000Y-130220000D01*
G37*
D13*
X74930000Y-128270000D03*
%TD*%
D14*
%TO.C,R10*%
G36*
X77166000Y-130220000D02*
G01*
X77166000Y-128858000D01*
X77166961Y-128848245D01*
X77169806Y-128838866D01*
X77174427Y-128830221D01*
X77180645Y-128822645D01*
X77188221Y-128816427D01*
X77196866Y-128811806D01*
X77206245Y-128808961D01*
X77216000Y-128808000D01*
X77724000Y-128808000D01*
X77733755Y-128808961D01*
X77743134Y-128811806D01*
X77751779Y-128816427D01*
X77759355Y-128822645D01*
X77765573Y-128830221D01*
X77770194Y-128838866D01*
X77773039Y-128848245D01*
X77774000Y-128858000D01*
X77774000Y-130220000D01*
X78120000Y-130220000D01*
X78120000Y-131720000D01*
X76820000Y-131720000D01*
X76820000Y-130220000D01*
X77166000Y-130220000D01*
G37*
D13*
X77470000Y-128270000D03*
%TD*%
D14*
%TO.C,R11*%
G36*
X79706000Y-130220000D02*
G01*
X79706000Y-128858000D01*
X79706961Y-128848245D01*
X79709806Y-128838866D01*
X79714427Y-128830221D01*
X79720645Y-128822645D01*
X79728221Y-128816427D01*
X79736866Y-128811806D01*
X79746245Y-128808961D01*
X79756000Y-128808000D01*
X80264000Y-128808000D01*
X80273755Y-128808961D01*
X80283134Y-128811806D01*
X80291779Y-128816427D01*
X80299355Y-128822645D01*
X80305573Y-128830221D01*
X80310194Y-128838866D01*
X80313039Y-128848245D01*
X80314000Y-128858000D01*
X80314000Y-130220000D01*
X80660000Y-130220000D01*
X80660000Y-131720000D01*
X79360000Y-131720000D01*
X79360000Y-130220000D01*
X79706000Y-130220000D01*
G37*
D13*
X80010000Y-128270000D03*
%TD*%
D14*
%TO.C,R12*%
G36*
X82246000Y-130220000D02*
G01*
X82246000Y-128858000D01*
X82246961Y-128848245D01*
X82249806Y-128838866D01*
X82254427Y-128830221D01*
X82260645Y-128822645D01*
X82268221Y-128816427D01*
X82276866Y-128811806D01*
X82286245Y-128808961D01*
X82296000Y-128808000D01*
X82804000Y-128808000D01*
X82813755Y-128808961D01*
X82823134Y-128811806D01*
X82831779Y-128816427D01*
X82839355Y-128822645D01*
X82845573Y-128830221D01*
X82850194Y-128838866D01*
X82853039Y-128848245D01*
X82854000Y-128858000D01*
X82854000Y-130220000D01*
X83200000Y-130220000D01*
X83200000Y-131720000D01*
X81900000Y-131720000D01*
X81900000Y-130220000D01*
X82246000Y-130220000D01*
G37*
D13*
X82550000Y-128270000D03*
%TD*%
D14*
%TO.C,R13*%
G36*
X102566000Y-139030000D02*
G01*
X102566000Y-137668000D01*
X102566961Y-137658245D01*
X102569806Y-137648866D01*
X102574427Y-137640221D01*
X102580645Y-137632645D01*
X102588221Y-137626427D01*
X102596866Y-137621806D01*
X102606245Y-137618961D01*
X102616000Y-137618000D01*
X103124000Y-137618000D01*
X103133755Y-137618961D01*
X103143134Y-137621806D01*
X103151779Y-137626427D01*
X103159355Y-137632645D01*
X103165573Y-137640221D01*
X103170194Y-137648866D01*
X103173039Y-137658245D01*
X103174000Y-137668000D01*
X103174000Y-139030000D01*
X103520000Y-139030000D01*
X103520000Y-140530000D01*
X102220000Y-140530000D01*
X102220000Y-139030000D01*
X102566000Y-139030000D01*
G37*
D13*
X102870000Y-137080000D03*
%TD*%
%TO.C,R14*%
X76200000Y-120490000D03*
X76200000Y-123190000D03*
%TD*%
%TO.C,R15*%
X78740000Y-120490000D03*
X78740000Y-123190000D03*
%TD*%
D14*
%TO.C,R16*%
G36*
X112064000Y-137750000D02*
G01*
X112064000Y-139112000D01*
X112063039Y-139121755D01*
X112060194Y-139131134D01*
X112055573Y-139139779D01*
X112049355Y-139147355D01*
X112041779Y-139153573D01*
X112033134Y-139158194D01*
X112023755Y-139161039D01*
X112014000Y-139162000D01*
X111506000Y-139162000D01*
X111496245Y-139161039D01*
X111486866Y-139158194D01*
X111478221Y-139153573D01*
X111470645Y-139147355D01*
X111464427Y-139139779D01*
X111459806Y-139131134D01*
X111456961Y-139121755D01*
X111456000Y-139112000D01*
X111456000Y-137750000D01*
X111110000Y-137750000D01*
X111110000Y-136250000D01*
X112410000Y-136250000D01*
X112410000Y-137750000D01*
X112064000Y-137750000D01*
G37*
D13*
X111760000Y-139700000D03*
%TD*%
D14*
%TO.C,R17*%
G36*
X77166000Y-139110000D02*
G01*
X77166000Y-137748000D01*
X77166961Y-137738245D01*
X77169806Y-137728866D01*
X77174427Y-137720221D01*
X77180645Y-137712645D01*
X77188221Y-137706427D01*
X77196866Y-137701806D01*
X77206245Y-137698961D01*
X77216000Y-137698000D01*
X77724000Y-137698000D01*
X77733755Y-137698961D01*
X77743134Y-137701806D01*
X77751779Y-137706427D01*
X77759355Y-137712645D01*
X77765573Y-137720221D01*
X77770194Y-137728866D01*
X77773039Y-137738245D01*
X77774000Y-137748000D01*
X77774000Y-139110000D01*
X78120000Y-139110000D01*
X78120000Y-140610000D01*
X76820000Y-140610000D01*
X76820000Y-139110000D01*
X77166000Y-139110000D01*
G37*
D13*
X77470000Y-137160000D03*
%TD*%
D14*
%TO.C,R18*%
G36*
X79706000Y-139110000D02*
G01*
X79706000Y-137748000D01*
X79706961Y-137738245D01*
X79709806Y-137728866D01*
X79714427Y-137720221D01*
X79720645Y-137712645D01*
X79728221Y-137706427D01*
X79736866Y-137701806D01*
X79746245Y-137698961D01*
X79756000Y-137698000D01*
X80264000Y-137698000D01*
X80273755Y-137698961D01*
X80283134Y-137701806D01*
X80291779Y-137706427D01*
X80299355Y-137712645D01*
X80305573Y-137720221D01*
X80310194Y-137728866D01*
X80313039Y-137738245D01*
X80314000Y-137748000D01*
X80314000Y-139110000D01*
X80660000Y-139110000D01*
X80660000Y-140610000D01*
X79360000Y-140610000D01*
X79360000Y-139110000D01*
X79706000Y-139110000D01*
G37*
D13*
X80010000Y-137160000D03*
%TD*%
D14*
%TO.C,R19*%
G36*
X88596000Y-138950000D02*
G01*
X88596000Y-137588000D01*
X88596961Y-137578245D01*
X88599806Y-137568866D01*
X88604427Y-137560221D01*
X88610645Y-137552645D01*
X88618221Y-137546427D01*
X88626866Y-137541806D01*
X88636245Y-137538961D01*
X88646000Y-137538000D01*
X89154000Y-137538000D01*
X89163755Y-137538961D01*
X89173134Y-137541806D01*
X89181779Y-137546427D01*
X89189355Y-137552645D01*
X89195573Y-137560221D01*
X89200194Y-137568866D01*
X89203039Y-137578245D01*
X89204000Y-137588000D01*
X89204000Y-138950000D01*
X89550000Y-138950000D01*
X89550000Y-140450000D01*
X88250000Y-140450000D01*
X88250000Y-138950000D01*
X88596000Y-138950000D01*
G37*
D13*
X88900000Y-137000000D03*
%TD*%
D14*
%TO.C,R20*%
G36*
X91136000Y-138950000D02*
G01*
X91136000Y-137588000D01*
X91136961Y-137578245D01*
X91139806Y-137568866D01*
X91144427Y-137560221D01*
X91150645Y-137552645D01*
X91158221Y-137546427D01*
X91166866Y-137541806D01*
X91176245Y-137538961D01*
X91186000Y-137538000D01*
X91694000Y-137538000D01*
X91703755Y-137538961D01*
X91713134Y-137541806D01*
X91721779Y-137546427D01*
X91729355Y-137552645D01*
X91735573Y-137560221D01*
X91740194Y-137568866D01*
X91743039Y-137578245D01*
X91744000Y-137588000D01*
X91744000Y-138950000D01*
X92090000Y-138950000D01*
X92090000Y-140450000D01*
X90790000Y-140450000D01*
X90790000Y-138950000D01*
X91136000Y-138950000D01*
G37*
D13*
X91440000Y-137000000D03*
%TD*%
D14*
%TO.C,R21*%
G36*
X102566000Y-130220000D02*
G01*
X102566000Y-128858000D01*
X102566961Y-128848245D01*
X102569806Y-128838866D01*
X102574427Y-128830221D01*
X102580645Y-128822645D01*
X102588221Y-128816427D01*
X102596866Y-128811806D01*
X102606245Y-128808961D01*
X102616000Y-128808000D01*
X103124000Y-128808000D01*
X103133755Y-128808961D01*
X103143134Y-128811806D01*
X103151779Y-128816427D01*
X103159355Y-128822645D01*
X103165573Y-128830221D01*
X103170194Y-128838866D01*
X103173039Y-128848245D01*
X103174000Y-128858000D01*
X103174000Y-130220000D01*
X103520000Y-130220000D01*
X103520000Y-131720000D01*
X102220000Y-131720000D01*
X102220000Y-130220000D01*
X102566000Y-130220000D01*
G37*
D13*
X102870000Y-128270000D03*
%TD*%
D14*
%TO.C,R22*%
G36*
X105106000Y-130140000D02*
G01*
X105106000Y-128778000D01*
X105106961Y-128768245D01*
X105109806Y-128758866D01*
X105114427Y-128750221D01*
X105120645Y-128742645D01*
X105128221Y-128736427D01*
X105136866Y-128731806D01*
X105146245Y-128728961D01*
X105156000Y-128728000D01*
X105664000Y-128728000D01*
X105673755Y-128728961D01*
X105683134Y-128731806D01*
X105691779Y-128736427D01*
X105699355Y-128742645D01*
X105705573Y-128750221D01*
X105710194Y-128758866D01*
X105713039Y-128768245D01*
X105714000Y-128778000D01*
X105714000Y-130140000D01*
X106060000Y-130140000D01*
X106060000Y-131640000D01*
X104760000Y-131640000D01*
X104760000Y-130140000D01*
X105106000Y-130140000D01*
G37*
D13*
X105410000Y-128190000D03*
%TD*%
%TO.C,R23*%
X81280000Y-120490000D03*
X81280000Y-123190000D03*
%TD*%
%TO.C,R24*%
X88900000Y-120490000D03*
X88900000Y-123190000D03*
%TD*%
%TO.C,R25*%
X109220000Y-120490000D03*
X109220000Y-123190000D03*
%TD*%
%TO.C,R26*%
X83820000Y-120490000D03*
X83820000Y-123190000D03*
%TD*%
%TO.C,R27*%
X91440000Y-120490000D03*
X91440000Y-123190000D03*
%TD*%
%TO.C,R28*%
X106680000Y-120490000D03*
X106680000Y-123190000D03*
%TD*%
%TO.C,R29*%
X93980000Y-120490000D03*
X93980000Y-123190000D03*
%TD*%
%TO.C,R30*%
X104140000Y-120490000D03*
X104140000Y-123190000D03*
%TD*%
%TO.C,R32*%
X96520000Y-120490000D03*
X96520000Y-123190000D03*
%TD*%
%TO.C,R33*%
X101600000Y-120490000D03*
X101600000Y-123190000D03*
%TD*%
D15*
%TO.C,R34*%
X111600000Y-129540000D03*
X114300000Y-129540000D03*
%TD*%
D13*
%TO.C,R35*%
X101600000Y-113030000D03*
X101600000Y-110330000D03*
%TD*%
D15*
%TO.C,R36*%
X71374000Y-110490000D03*
X68674000Y-110490000D03*
%TD*%
D13*
%TO.C,R37*%
X104140000Y-113030000D03*
X104140000Y-110330000D03*
%TD*%
%TO.C,R39*%
X106680000Y-113030000D03*
X106680000Y-110330000D03*
%TD*%
%TO.C,R40*%
X111760000Y-113030000D03*
X111760000Y-110330000D03*
%TD*%
D14*
%TO.C,R41*%
G36*
X108286000Y-101296000D02*
G01*
X109648000Y-101296000D01*
X109657755Y-101296961D01*
X109667134Y-101299806D01*
X109675779Y-101304427D01*
X109683355Y-101310645D01*
X109689573Y-101318221D01*
X109694194Y-101326866D01*
X109697039Y-101336245D01*
X109698000Y-101346000D01*
X109698000Y-101854000D01*
X109697039Y-101863755D01*
X109694194Y-101873134D01*
X109689573Y-101881779D01*
X109683355Y-101889355D01*
X109675779Y-101895573D01*
X109667134Y-101900194D01*
X109657755Y-101903039D01*
X109648000Y-101904000D01*
X108286000Y-101904000D01*
X108286000Y-102250000D01*
X106786000Y-102250000D01*
X106786000Y-100950000D01*
X108286000Y-100950000D01*
X108286000Y-101296000D01*
G37*
D15*
X110236000Y-101600000D03*
%TD*%
D13*
%TO.C,R42*%
X109220000Y-113030000D03*
X109220000Y-110330000D03*
%TD*%
%TO.C,R43*%
X123698000Y-96520000D03*
X123698000Y-99220000D03*
%TD*%
D15*
%TO.C,R44*%
X91026000Y-111760000D03*
X93726000Y-111760000D03*
%TD*%
D14*
%TO.C,R45*%
G36*
X122510000Y-107646000D02*
G01*
X123872000Y-107646000D01*
X123881755Y-107646961D01*
X123891134Y-107649806D01*
X123899779Y-107654427D01*
X123907355Y-107660645D01*
X123913573Y-107668221D01*
X123918194Y-107676866D01*
X123921039Y-107686245D01*
X123922000Y-107696000D01*
X123922000Y-108204000D01*
X123921039Y-108213755D01*
X123918194Y-108223134D01*
X123913573Y-108231779D01*
X123907355Y-108239355D01*
X123899779Y-108245573D01*
X123891134Y-108250194D01*
X123881755Y-108253039D01*
X123872000Y-108254000D01*
X122510000Y-108254000D01*
X122510000Y-108600000D01*
X121010000Y-108600000D01*
X121010000Y-107300000D01*
X122510000Y-107300000D01*
X122510000Y-107646000D01*
G37*
D15*
X124460000Y-107950000D03*
%TD*%
D14*
%TO.C,R46*%
G36*
X125130000Y-112218000D02*
G01*
X126492000Y-112218000D01*
X126501755Y-112218961D01*
X126511134Y-112221806D01*
X126519779Y-112226427D01*
X126527355Y-112232645D01*
X126533573Y-112240221D01*
X126538194Y-112248866D01*
X126541039Y-112258245D01*
X126542000Y-112268000D01*
X126542000Y-112776000D01*
X126541039Y-112785755D01*
X126538194Y-112795134D01*
X126533573Y-112803779D01*
X126527355Y-112811355D01*
X126519779Y-112817573D01*
X126511134Y-112822194D01*
X126501755Y-112825039D01*
X126492000Y-112826000D01*
X125130000Y-112826000D01*
X125130000Y-113172000D01*
X123630000Y-113172000D01*
X123630000Y-111872000D01*
X125130000Y-111872000D01*
X125130000Y-112218000D01*
G37*
D15*
X127080000Y-112522000D03*
%TD*%
D14*
%TO.C,R47*%
G36*
X113018000Y-101296000D02*
G01*
X114380000Y-101296000D01*
X114389755Y-101296961D01*
X114399134Y-101299806D01*
X114407779Y-101304427D01*
X114415355Y-101310645D01*
X114421573Y-101318221D01*
X114426194Y-101326866D01*
X114429039Y-101336245D01*
X114430000Y-101346000D01*
X114430000Y-101854000D01*
X114429039Y-101863755D01*
X114426194Y-101873134D01*
X114421573Y-101881779D01*
X114415355Y-101889355D01*
X114407779Y-101895573D01*
X114399134Y-101900194D01*
X114389755Y-101903039D01*
X114380000Y-101904000D01*
X113018000Y-101904000D01*
X113018000Y-102250000D01*
X111518000Y-102250000D01*
X111518000Y-100950000D01*
X113018000Y-100950000D01*
X113018000Y-101296000D01*
G37*
D15*
X114968000Y-101600000D03*
%TD*%
D14*
%TO.C,R48*%
G36*
X117764000Y-101296000D02*
G01*
X119126000Y-101296000D01*
X119135755Y-101296961D01*
X119145134Y-101299806D01*
X119153779Y-101304427D01*
X119161355Y-101310645D01*
X119167573Y-101318221D01*
X119172194Y-101326866D01*
X119175039Y-101336245D01*
X119176000Y-101346000D01*
X119176000Y-101854000D01*
X119175039Y-101863755D01*
X119172194Y-101873134D01*
X119167573Y-101881779D01*
X119161355Y-101889355D01*
X119153779Y-101895573D01*
X119145134Y-101900194D01*
X119135755Y-101903039D01*
X119126000Y-101904000D01*
X117764000Y-101904000D01*
X117764000Y-102250000D01*
X116264000Y-102250000D01*
X116264000Y-100950000D01*
X117764000Y-100950000D01*
X117764000Y-101296000D01*
G37*
D15*
X119714000Y-101600000D03*
%TD*%
D14*
%TO.C,R49*%
G36*
X127153200Y-106568800D02*
G01*
X127153200Y-105206800D01*
X127154161Y-105197045D01*
X127157006Y-105187666D01*
X127161627Y-105179021D01*
X127167845Y-105171445D01*
X127175421Y-105165227D01*
X127184066Y-105160606D01*
X127193445Y-105157761D01*
X127203200Y-105156800D01*
X127711200Y-105156800D01*
X127720955Y-105157761D01*
X127730334Y-105160606D01*
X127738979Y-105165227D01*
X127746555Y-105171445D01*
X127752773Y-105179021D01*
X127757394Y-105187666D01*
X127760239Y-105197045D01*
X127761200Y-105206800D01*
X127761200Y-106568800D01*
X128107200Y-106568800D01*
X128107200Y-108068800D01*
X126807200Y-108068800D01*
X126807200Y-106568800D01*
X127153200Y-106568800D01*
G37*
D13*
X127457200Y-104618800D03*
%TD*%
%TO.C,R50*%
X129540000Y-105250000D03*
X129540000Y-107950000D03*
%TD*%
%TO.C,R52*%
X96520000Y-110330000D03*
X96520000Y-113030000D03*
%TD*%
D14*
%TO.C,R53*%
G36*
X127590000Y-116028000D02*
G01*
X128952000Y-116028000D01*
X128961755Y-116028961D01*
X128971134Y-116031806D01*
X128979779Y-116036427D01*
X128987355Y-116042645D01*
X128993573Y-116050221D01*
X128998194Y-116058866D01*
X129001039Y-116068245D01*
X129002000Y-116078000D01*
X129002000Y-116586000D01*
X129001039Y-116595755D01*
X128998194Y-116605134D01*
X128993573Y-116613779D01*
X128987355Y-116621355D01*
X128979779Y-116627573D01*
X128971134Y-116632194D01*
X128961755Y-116635039D01*
X128952000Y-116636000D01*
X127590000Y-116636000D01*
X127590000Y-116982000D01*
X126090000Y-116982000D01*
X126090000Y-115682000D01*
X127590000Y-115682000D01*
X127590000Y-116028000D01*
G37*
D15*
X129540000Y-116332000D03*
%TD*%
%TO.C,R54*%
X129540000Y-114300000D03*
X126840000Y-114300000D03*
%TD*%
D14*
%TO.C,R55*%
G36*
X122924000Y-113996000D02*
G01*
X124286000Y-113996000D01*
X124295755Y-113996961D01*
X124305134Y-113999806D01*
X124313779Y-114004427D01*
X124321355Y-114010645D01*
X124327573Y-114018221D01*
X124332194Y-114026866D01*
X124335039Y-114036245D01*
X124336000Y-114046000D01*
X124336000Y-114554000D01*
X124335039Y-114563755D01*
X124332194Y-114573134D01*
X124327573Y-114581779D01*
X124321355Y-114589355D01*
X124313779Y-114595573D01*
X124305134Y-114600194D01*
X124295755Y-114603039D01*
X124286000Y-114604000D01*
X122924000Y-114604000D01*
X122924000Y-114950000D01*
X121424000Y-114950000D01*
X121424000Y-113650000D01*
X122924000Y-113650000D01*
X122924000Y-113996000D01*
G37*
D15*
X124874000Y-114300000D03*
%TD*%
D14*
%TO.C,R56*%
G36*
X118887800Y-97433600D02*
G01*
X117525800Y-97433600D01*
X117516045Y-97432639D01*
X117506666Y-97429794D01*
X117498021Y-97425173D01*
X117490445Y-97418955D01*
X117484227Y-97411379D01*
X117479606Y-97402734D01*
X117476761Y-97393355D01*
X117475800Y-97383600D01*
X117475800Y-96875600D01*
X117476761Y-96865845D01*
X117479606Y-96856466D01*
X117484227Y-96847821D01*
X117490445Y-96840245D01*
X117498021Y-96834027D01*
X117506666Y-96829406D01*
X117516045Y-96826561D01*
X117525800Y-96825600D01*
X118887800Y-96825600D01*
X118887800Y-96479600D01*
X120387800Y-96479600D01*
X120387800Y-97779600D01*
X118887800Y-97779600D01*
X118887800Y-97433600D01*
G37*
D15*
X116937800Y-97129600D03*
%TD*%
%TO.C,R58*%
X82296000Y-97282000D03*
X79596000Y-97282000D03*
%TD*%
D18*
%TO.C,J10*%
X69850000Y-100584000D03*
D19*
X69850000Y-98044000D03*
%TD*%
D22*
%TO.C,J11*%
X74422000Y-103632000D03*
%TD*%
%TO.C,J12*%
X79756000Y-103632000D03*
%TD*%
M02*
